<?xml version="1.0" encoding="utf-8"?>
<!DOCTYPE svg PUBLIC "-//W3C//DTD SVG 1.0//EN" "http://www.w3.org/TR/2001/REC-SVG-20010904/DTD/svg10.dtd">
<svg version="1.0" xmlns="http://www.w3.org/2000/svg" width="1024px" height="1024px" viewBox="0 0 1024 1024" preserveAspectRatio="xMidYMid meet">
 <g fill="#2e2c2d">
  <path d="M481.5 927.3 c-31.5 -1.8 -74.2 -7.3 -73 -9.4 0.3 -0.4 -0.3 -0.5 -1.4 -0.2 -2 0.5 -24.2 -5.1 -35.6 -9 -13.7 -4.7 -27.6 -11 -26.3 -12 0.9 -0.6 0.7 -0.7 -0.6 -0.3 -2 0.7 -11.9 -4.2 -11.1 -5.5 0.3 -0.4 0 -1.1 -0.6 -1.5 -0.8 -0.4 -0.9 -0.3 -0.5 0.4 1.2 2 -0.3 1.3 -7.3 -3.2 -15.9 -10.3 -40.4 -34.5 -38.4 -37.9 0.3 -0.7 0.2 -0.9 -0.2 -0.4 -1 0.8 -3.4 -2.5 -7.1 -9.5 -2.7 -5.3 -2.9 -6.2 -1.2 -5.2 0.7 0.4 0.8 0.3 0.4 -0.5 -0.4 -0.6 -1.1 -0.9 -1.6 -0.6 -1.1 0.7 -6.3 -12 -8.9 -21.6 -3 -10.8 -4.2 -20.9 -4.2 -33.4 l0 -11 -3.3 0 c-1.9 0 -3.2 0.3 -2.9 0.8 0.6 1.1 -22.6 0.9 -28.8 -0.3 -9.8 -1.8 -20.1 -5.3 -18.7 -6.2 0.8 -0.5 0.4 -0.7 -1.2 -0.3 -3.2 0.7 -17.5 -5.9 -16.4 -7.6 0.5 -0.8 0.3 -0.9 -0.5 -0.5 -1.4 0.9 -12.4 -6 -11.6 -7.3 0.2 -0.5 -0.2 -0.8 -1.1 -0.7 -3.5 0.3 -21.3 -17.9 -30.7 -31.4 -19.3 -27.8 -35.8 -79.7 -40.6 -128 -3.4 -33.8 -3.9 -92.9 -1.1 -122 6 -61.8 19.4 -106.8 41.8 -140.5 9.8 -14.6 32.2 -36.5 35.9 -35.1 0.8 0.3 1.2 0.2 0.9 -0.3 -1.1 -1.8 16.5 -11.6 19.1 -10.7 0.8 0.3 1.2 0.2 0.8 -0.3 -1 -1.8 15.8 -6.5 29 -8.1 8.9 -1.1 24.8 -0.4 22.6 1 -0.9 0.5 -0.8 1 0.4 2 1.2 1 1.5 1 1.5 -0.4 0 -0.9 0.7 -1.6 1.6 -1.6 0.8 0 1.3 0.4 1 0.9 -0.4 0.5 0.2 0.7 1.2 0.4 1.6 -0.4 1.8 -1.9 1.8 -15.6 0 -12.3 0.4 -16.9 2.2 -24.2 3.3 -13.3 7.3 -23.9 8.4 -22.3 0.7 0.9 0.8 0.8 0.4 -0.5 -0.7 -2.2 1.4 -6.8 2.7 -6 0.6 0.3 0.7 0.1 0.3 -0.6 -1.5 -2.3 10.3 -19.8 20.8 -31 6.9 -7.3 21.6 -19.2 22.9 -18.5 0.7 0.4 0.9 0.4 0.5 -0.1 -1.5 -1.7 24.2 -17.2 26.4 -15.9 0.6 0.4 0.8 0.3 0.5 -0.3 -0.6 -0.9 11.8 -6.8 15.8 -7.5 1.1 -0.1 2.2 -0.6 2.5 -0.9 0.7 -0.9 11.6 -4.5 20.6 -6.9 5.8 -1.6 7.9 -1.8 8.4 -0.9 0.4 0.6 1.3 0.8 1.9 0.5 0.6 -0.4 0.9 -1.1 0.6 -1.5 -0.2 -0.5 1 -1.2 2.8 -1.5 39.3 -8.2 89.5 -11.8 135.7 -9.7 24.7 1.2 46 3 46 4 0 0.3 2.6 0.7 5.8 0.7 6.8 0.1 34.2 5.3 34.2 6.4 0 0.5 1 0.6 2.3 0.3 1.3 -0.3 1.7 -0.1 1 0.4 -0.7 0.5 0.5 0.9 3 0.9 4.7 0.2 24 6.1 23.3 7.2 -0.2 0.4 0.8 0.8 2.3 0.9 3.7 0.3 16.7 6 16.3 7.3 -0.1 0.5 1 1 2.5 1 3.5 0 15.2 6.5 13.2 7.3 -0.8 0.3 -0.5 0.6 0.9 0.6 3.9 0.2 8.2 2.9 7.6 4.9 -0.5 1.4 -0.4 1.4 0.5 0.2 1 -1.5 2.6 -0.7 2.6 1.3 0 0.7 0.7 1.1 1.6 1 1.9 -0.4 19.5 14 19.1 15.6 -0.1 0.7 0.1 1 0.6 0.7 1.1 -0.7 8.5 6.8 7.6 7.7 -0.4 0.4 -0.2 0.7 0.5 0.7 2.6 0 15.1 17.9 15.1 21.6 0 1.5 0.4 2.3 1 1.9 1.1 -0.7 7 11 7.3 14.4 0.1 1.2 0.4 2.1 0.8 2.1 0.4 0 1.5 2.6 2.4 5.7 3.4 11.6 4.6 21 4.8 35.6 0 8.1 0.3 14.7 0.6 14.7 0.3 0 1.3 -0.5 2.1 -1 1.3 -0.9 1.3 -1 0 -1 -0.8 -0.1 -0.4 -0.6 1 -1.2 4.4 -2 28.4 -1.3 37 1 11.5 3.1 24.1 8.2 23.3 9.4 -0.4 0.7 0 0.9 0.9 0.6 1.9 -0.8 12.4 5.5 12 7.1 -0.1 0.7 0.4 1.1 1.2 0.9 1.8 -0.4 10.8 6.1 10.1 7.3 -0.4 0.5 0 0.9 0.8 0.9 2.3 0 6.7 4 6.7 6.1 0 1 0.5 1.9 1.1 1.9 0.5 0 0.7 -0.6 0.3 -1.2 -2.1 -3.6 4.7 3.8 10.7 11.7 6.7 8.8 8.2 11.4 5.7 9.9 -0.7 -0.4 -0.8 -0.3 -0.4 0.5 0.4 0.6 1.1 0.9 1.6 0.6 1.2 -0.7 6.2 8.3 5.4 9.7 -0.4 0.7 -0.3 0.8 0.5 0.4 1.4 -0.9 8.2 12.9 7.4 15.2 -0.4 0.9 -0.2 1.3 0.4 0.9 1.4 -0.9 3.5 4.1 2.8 6.7 -0.5 1.5 -0.4 1.7 0.3 0.8 0.7 -1 1.8 1 4 7 5.7 16 8.4 25.3 8.5 29.6 0 2.3 0.4 3.8 0.8 3.1 0.4 -0.6 1.2 1.2 1.9 4.2 0.6 3 2.1 9.7 3.2 14.9 1.1 5.2 2.1 12.4 2.1 15.9 0 3.5 0.4 5.5 0.7 4.5 0.8 -2.1 3.4 17.6 5.1 38.1 1.8 20.6 1.5 66.3 -0.5 89.5 -2.3 26.5 -6.5 52.5 -11.5 71.5 -1.1 3.9 -2.2 8.3 -2.6 9.9 -0.5 2.4 -0.8 2.7 -1.7 1.5 -0.8 -1.1 -0.9 -1 -0.4 0.5 0.8 2.5 -2.4 13.7 -3.7 12.9 -0.6 -0.3 -0.7 -0.1 -0.3 0.6 0.9 1.4 -5.3 18.3 -6.5 17.5 -0.5 -0.3 -0.6 0.2 -0.3 1 0.7 1.8 -9.2 21.5 -15.3 30.6 -10.8 16 -30.8 35.8 -34.9 34.4 -1.4 -0.4 -1.5 -0.3 -0.6 0.4 1.1 0.7 -0.1 1.8 -4.7 4.6 -3.3 2.1 -6.6 3.4 -7.2 3 -0.7 -0.4 -0.9 -0.3 -0.6 0.3 1.5 2.5 -27.5 13.1 -32.9 12 -1.4 -0.2 -2.1 0 -1.7 0.6 0.5 0.8 -24.6 0.5 -30.2 -0.5 -1.9 -0.3 -2 0.3 -2.2 13.2 -0.4 36.6 -15.7 69.2 -44.3 94.3 -8.2 7.3 -19.3 14.8 -20.8 14.2 -0.7 -0.2 -1.1 -0.1 -0.8 0.4 0.6 0.9 -8.9 6.8 -11.6 7.3 -0.7 0.2 -1.5 0.6 -1.8 1 -1.4 1.9 -21.5 9.8 -23.4 9.2 -1.4 -0.3 -1.7 -0.2 -0.8 0.4 1.4 1 -15.3 6.6 -16.9 5.6 -0.5 -0.3 -0.9 -0.1 -0.9 0.4 0 0.5 -4.8 2.2 -10.7 3.6 -33.9 8.2 -69.5 11.7 -116.3 11.4 -14 -0.1 -27.7 -0.3 -30.5 -0.5z m80.5 -22.3 c73 -5.8 124.4 -27.1 154.2 -64 16.2 -20.1 25.3 -48.5 21.9 -68.6 -2.4 -14.1 -6.8 -24.7 -14.6 -34.9 -4.8 -6.3 -75 -75.5 -76.6 -75.5 -0.5 0 -0.9 1.1 -0.9 2.3 0 4 -5.9 14.5 -10.2 18.2 -6.9 5.9 -13.5 7.7 -25.8 7.3 -8.8 -0.3 -11.4 -0.8 -16.3 -3 -9.7 -4.6 -19.2 -14.7 -27.9 -30 -2.4 -4.1 -4.7 -7.3 -5.3 -7.2 -0.5 0.2 -3.5 1 -6.6 1.9 l-5.6 1.6 0.5 14.3 c1 28.9 -5.1 44.2 -20.5 51.8 -6.4 3.1 -7.3 3.3 -17.3 3.3 -8.8 -0.1 -11.4 -0.5 -15.8 -2.4 -12.9 -5.8 -20 -19.6 -20.9 -41.1 -0.3 -6.3 -0.1 -14.8 0.4 -18.7 l0.9 -7.3 -5 -1.6 c-2.8 -0.9 -5.6 -1.9 -6.3 -2.1 -0.7 -0.3 -2.4 1.9 -3.9 4.9 -7 13.8 -19.4 27.2 -30 32.4 -5.5 2.7 -6.6 2.9 -18.4 2.9 -11.2 0 -13 -0.3 -17 -2.3 -8.6 -4.5 -13.8 -11.3 -16.3 -21.2 l-1.4 -5.5 -37.2 37 c-20.5 20.4 -38.8 39.1 -40.7 41.6 -15.8 21.4 -17.7 49.6 -5.3 78.2 5.3 12.2 11.8 21.6 22.9 32.8 23.8 24 55.5 39.3 100 48.3 20.8 4.2 31.9 5.5 70 8 9.7 0.7 61 -0.3 75 -1.4z m249.6 -143 c1.5 -0.6 2.5 -1.3 2.2 -1.5 -0.3 -0.3 -2 0.1 -3.9 0.9 -3.8 1.7 -2.5 2.1 1.7 0.6z m-552.1 -16.9 c6 -1.4 7.3 -2.1 9 -4.9 9.7 -16 11.7 -18.1 71.5 -77.1 l60 -59.3 -1.6 -2.7 c-4 -6.8 -3.3 -6.6 -13.1 -2.8 -11.8 4.8 -19.3 6.1 -31.1 5.5 -11.7 -0.6 -19.2 -3.5 -26 -10.1 -7.1 -6.8 -8.5 -10.6 -9 -23 -0.4 -10.5 -0.3 -11 2.7 -17.2 7 -14.1 25.2 -24.4 47.9 -27 l6.2 -0.7 0 -5.9 c0 -5.8 -0.1 -5.9 -2.7 -5.9 -5.6 0 -20 -4.2 -28.1 -8.1 -10.5 -5.1 -20.9 -14.6 -24.3 -22.2 -3.3 -7.4 -3.3 -21.1 0 -28 3.5 -7.2 11.8 -14.2 19.8 -16.7 13 -4 31.2 -2.1 46.6 4.8 l6.6 3 3 -4.6 3.1 -4.7 -58 -58 c-31.9 -31.9 -60.5 -61.3 -63.6 -65.4 -3 -4.1 -6.8 -10 -8.4 -13.1 -2.9 -5.8 -3 -5.8 -10.9 -8.5 -10.9 -3.6 -20.7 -4.2 -30.7 -2 -26.5 5.8 -53 28.2 -69.3 58.6 -26.6 49.6 -38.2 132.5 -30.6 218.9 4 45.4 13 82.6 27 111.9 15.4 32 36.6 52.5 65 62.7 15 5.3 24.1 5.9 39 2.5z m533.3 0.3 c14.7 -2.8 32.8 -12.7 46.5 -25.4 23.3 -21.6 40.5 -58.7 50.6 -109.5 12.1 -60.7 10.4 -144.7 -4 -203.5 -6.1 -24.7 -18.4 -54.1 -29.6 -70.8 -14 -20.8 -33.1 -36 -54.4 -43.4 -8.1 -2.8 -10.7 -3.2 -19.4 -3.2 -11.8 -0.1 -24.8 3.3 -26.9 6.8 -0.7 1.2 -3.2 5.5 -5.5 9.6 -5.8 10.4 -11 16 -72.1 78 l-53.8 54.6 2.5 4.1 2.4 4.1 6.6 -3 c10.2 -4.6 20.3 -6.8 31.2 -6.8 15.7 0 25.1 3.6 33 12.6 5.4 6.1 6.4 9.8 5.9 20.8 -0.3 7.7 -0.8 9.9 -3.3 14.5 -7.5 13.7 -28.8 25.9 -50.2 28.7 l-5.3 0.7 0 5.7 0 5.8 5.8 0.7 c19.4 2.3 36.7 10.2 46.1 21.2 5.4 6.4 7.5 12.7 7.5 23.4 0 7.3 -0.4 9.3 -2.7 14.2 -3.4 6.9 -10 12.9 -17.6 15.9 -4.8 1.9 -7.5 2.2 -19.1 2.2 -12.9 0 -13.9 -0.1 -23.5 -3.5 -5.5 -2 -10.7 -3.9 -11.6 -4.3 -1.1 -0.5 -2.3 0.4 -4.3 3.1 l-2.7 3.8 54.5 54 c54.8 54.2 64.4 64.5 70.7 75.5 1.9 3.3 4.1 7.3 5 8.8 1.4 2.4 2.8 3.1 9.5 4.5 12.7 2.8 14.6 2.8 28.2 0.1z m-276.2 -49 c1.2 -0.7 3.2 -3.5 4.5 -6.1 2.2 -4.3 2.4 -6.1 2.4 -18 0 -7.2 -0.3 -13.5 -0.8 -13.9 -1.4 -1.4 -20.1 -0.4 -21.7 1.2 -1.2 1.2 -1.5 4.1 -1.5 13.7 0 10.4 0.3 12.9 2.2 16.9 3.5 7.7 9 10 14.9 6.2z m103.3 -35 c1.2 -1.5 2.1 -4.1 2.1 -5.8 -0.1 -4.9 -4.2 -13.8 -10.5 -22.5 l-5.7 -8 -7.2 4.9 c-3.9 2.6 -8.3 5.4 -9.8 6.1 -1.6 0.7 -2.8 1.7 -2.8 2.3 0 2.2 8.1 14.4 12.9 19.4 2.8 2.9 7 6.1 9.3 7.2 3.7 1.6 4.5 1.7 6.9 0.4 1.5 -0.7 3.7 -2.6 4.8 -4z m-202 2.7 c2.1 -1.1 6 -4.4 8.7 -7.4 4.7 -5.1 12.4 -16.8 12.4 -18.7 0 -0.5 -1.5 -1.7 -3.2 -2.6 -1.8 -0.9 -6.2 -3.6 -9.7 -6.1 -7.4 -5.1 -7 -5.3 -14 5.3 -9.6 14.2 -11.2 23.2 -5.1 28.7 3.6 3.2 5.8 3.4 10.9 0.8z m-50.8 -85.7 c4.2 -1.2 11.3 -4.4 15.7 -7 0.2 -0.1 -0.9 -5.2 -2.4 -11.2 l-2.7 -11.1 -3.1 0.5 c-12.1 2.1 -24 7.6 -28.7 13.3 -3.5 4.2 -3.7 6.9 -0.7 10.6 5.1 6.4 11.6 7.9 21.9 4.9z m306.3 0.2 c4 -1.7 7.6 -6 7.6 -9.3 0 -7.2 -11.5 -14.8 -28.3 -18.8 -4.8 -1.1 -5.9 -1.1 -7.1 0 -1.1 1.2 -6.1 19.5 -5.4 20 7.8 5 19.8 9.4 26.1 9.5 2.1 0 5.2 -0.6 7.1 -1.4z m-292 -98.6 c1.6 -6.1 2.6 -11.3 2.4 -11.5 -0.2 -0.3 -3.3 -1.8 -6.9 -3.4 -13.1 -5.9 -22.6 -6.9 -28.4 -2.9 -1.9 1.2 -4 3.5 -4.6 5 -2 4.9 3.5 11.5 14.1 16.9 3.5 1.8 17.5 6.6 20 6.8 0.3 0.1 1.8 -4.9 3.4 -10.9z m282.6 4.3 c8.2 -4 17 -11.9 17 -15.4 0 -1.1 -1.3 -3.3 -3 -4.9 -6.6 -6.1 -16.8 -5.7 -32.3 1.3 -4.9 2.2 -6.6 3.4 -6.2 4.5 1.3 3.4 4.5 16.8 4.5 18.8 0 2.2 0 2.2 6.3 0.8 3.4 -0.8 9.6 -3.1 13.7 -5.1z m-238.1 -73.1 c2.5 -2.1 6.5 -5.1 8.8 -6.7 2.4 -1.7 4.3 -3.5 4.3 -4.1 0 -2 -8.4 -12.6 -14.3 -18.1 -3 -2.9 -7.5 -6.2 -10 -7.4 -4.4 -2.1 -4.7 -2.2 -7.2 -0.5 -1.5 1 -3.3 3.4 -4.2 5.3 -1.8 4.4 -0.7 10 3.8 18.3 2.7 5.1 12.3 17 13.7 17 0.3 0 2.6 -1.7 5.1 -3.8z m189 -9.6 c1.9 -3.1 4.2 -8.6 5.2 -12.3 1.7 -6.1 1.7 -6.8 0.2 -10 -0.9 -1.9 -2.6 -4.1 -3.9 -4.9 -2.1 -1.4 -2.7 -1.4 -6.9 0.5 -5.6 2.5 -15.4 11.7 -20.7 19.4 -2.2 3.2 -3.8 6 -3.6 6.1 0.1 0.1 3.7 2.6 7.9 5.5 4.2 2.8 8.5 6.1 9.5 7.2 l1.9 2.1 3.5 -4 c1.9 -2.2 5 -6.5 6.9 -9.6z m-139.7 -20.2 c-0.1 -1.6 -0.4 -9.9 -0.5 -18.4 -0.2 -16.7 1 -23.2 5.8 -33.8 3.3 -7.1 11.1 -14.6 17.6 -16.7 7.3 -2.4 23.8 -1.7 29.4 1.2 8.3 4.3 15.4 14.3 19 26.8 1.9 6.6 2.6 27.3 1.2 38.1 l-0.8 6.2 7.3 2.2 c6.8 2 7.3 2.1 8.3 0.5 3.1 -5.1 12.8 -17.7 17.2 -22.2 6.3 -6.5 16.1 -12.9 22.7 -14.8 5.7 -1.7 17.4 -2 22.8 -0.5 9.8 2.8 19 13.4 20.5 23.8 l0.8 5.3 23.1 -23.3 c41.2 -41.7 53.8 -55.1 57.5 -61.4 5.5 -9.2 8.7 -18.1 10.6 -29.1 1.4 -8.3 1.4 -11.2 0.5 -18.8 -4.1 -31.4 -22.9 -59.8 -53.4 -80.6 -14.1 -9.7 -40.3 -20.8 -61.5 -26.3 -10.5 -2.7 -32.6 -6.5 -48.8 -8.3 -20.3 -2.3 -103.2 -2.6 -123.5 -0.5 -37.8 3.9 -68.2 11.8 -92.5 23.9 -26.2 13.2 -50.3 35.9 -61.4 58 -14.2 28.4 -14.5 54.1 -0.8 80.8 3.9 7.5 6.8 10.6 42.1 46.3 l38 38.2 2.1 -6.5 c2.4 -7.2 6.1 -12.4 12.4 -17.2 5.7 -4.4 10.8 -5.6 22.1 -5.1 8.5 0.3 10.2 0.7 16 3.8 8.2 4.4 20.8 16.7 28.1 27.6 l5.4 8.1 6.5 -2.2 c6.1 -2.1 6.5 -2.4 6.2 -5.1z m46.5 -1.8 c1.1 -0.9 2.3 -17.4 1.8 -22.8 -0.8 -7.8 -4.6 -16.2 -8.6 -19.1 -2.4 -1.7 -3 -1.8 -5.5 -0.6 -8 3.9 -11.8 18.2 -9.5 35 l1.2 8.5 10.2 -0.4 c5.6 -0.2 10.3 -0.5 10.4 -0.6z m375.4 -6.7 c-0.9 -2.2 -1 -2.2 -1 -0.3 -0.1 1.1 0.2 2.4 0.6 2.7 1.2 1.2 1.4 0 0.4 -2.4z m-95.8 -101.9 c-2.8 -1.1 -13 -2.5 -12.2 -1.7 0.5 0.6 9.8 2.4 12.9 2.5 0.8 0 0.5 -0.3 -0.7 -0.8z"/>
 </g>
 <g fill="#db3f37">
  <path d="M484 909.4 c-38 -2.5 -49.2 -3.8 -70 -8 -44.5 -9 -76.2 -24.3 -100 -48.3 -15.4 -15.6 -24.3 -31.1 -28.9 -50.7 -2.6 -11.1 -2.9 -29.6 -0.6 -40.3 1.6 -7.9 6.7 -18.9 11.9 -26 4.3 -5.9 83.2 -84.2 84 -83.4 0.3 0.4 0.6 2.6 0.6 4.9 0 10 7.3 21.7 16.6 26.4 4.2 2.1 6.2 2.5 14.4 2.5 8.4 0 10.2 -0.3 15.4 -2.9 11.2 -5.5 25.9 -22 31.2 -35.1 1.1 -2.5 2.4 -4.4 2.9 -4.3 9.2 2.6 18.5 6.4 18 7.6 -1.4 3.6 -2.7 20.7 -2.1 28 1.9 25.2 14.1 39.5 33.8 39.5 6.6 0.1 8.5 -0.4 14.2 -3.2 16.4 -8 23.1 -28 19.7 -58.4 -0.4 -3.8 -0.4 -7 0.1 -7.3 1.1 -0.7 17.1 -5.4 18.4 -5.4 0.7 0 1.4 0.9 1.7 1.9 1.1 4.5 10.7 18.9 17 25.7 9 9.7 16.6 13.6 27.5 14.2 17.5 0.9 30.2 -9.4 33.5 -27.4 l1.2 -6.5 38.8 37.8 c45.5 44.5 48.8 48.3 54.3 64.5 7.4 21.8 5.3 46.4 -6.1 69.3 -23.8 48 -81 76.7 -166.5 83.5 -13.7 1.1 -70.9 2.1 -81 1.4z"/>
  <path d="M233.8 749.9 c-13.9 -1.9 -31.3 -9.7 -45.6 -20.4 -33.7 -25.4 -55.8 -81.1 -62.7 -158.5 -4.1 -45.3 -2.7 -97.6 3.6 -137 5.5 -34.8 14.9 -65.3 27 -87.9 16.3 -30.4 42.8 -52.8 69.3 -58.6 11.1 -2.5 26.2 -1.6 36.9 2 7.7 2.7 7.8 2.8 10.7 8.5 5.9 11.6 15.9 22.6 73.8 80.4 l59 58.9 -3.5 4.5 c-1.8 2.4 -4.1 5.8 -4.9 7.3 -0.8 1.6 -1.6 2.9 -1.8 2.9 -0.2 0 -4.2 -1.8 -8.9 -4 -23.2 -10.9 -42.4 -10.5 -55 1 -9.9 9 -12.6 20.4 -7.7 31.8 3.2 7.5 13.7 17 24.2 22.1 8.1 3.9 22.5 8.1 28.1 8.1 l2.7 0 0 8.9 0 8.9 -6.2 0.7 c-22.8 2.6 -40.9 12.9 -47.9 27 -2.9 6 -3.1 7.1 -2.7 14.2 0.6 9.2 2.7 13.9 9 20 12.9 12.6 33.4 13.4 56.2 2.4 4.5 -2.2 8.1 -3.9 8.2 -3.8 0 0.1 2.1 3.3 4.7 7 3.7 5.3 4.5 7.2 3.8 8.6 -0.6 0.9 -28 28.4 -61.1 61.1 -59.8 59.1 -61.8 61.2 -71.5 77.2 -1.8 2.8 -3 3.5 -9.3 4.9 -9.6 2.3 -20.2 2.9 -28.4 1.8z"/>
  <path d="M773 750.4 c-1.9 -0.2 -7 -1.1 -11.4 -2.1 -6.7 -1.4 -8.1 -2.1 -9.5 -4.5 -0.9 -1.5 -3.1 -5.5 -5 -8.8 -6.3 -11 -16 -21.4 -71.8 -76.5 l-55.6 -55.1 4.3 -6.7 c4.7 -7.3 4.7 -7.3 12 -3.7 1.9 1 7.3 3 12 4.6 11.4 3.7 26.5 3.9 35.1 0.5 20.3 -7.9 26.6 -31.3 12.8 -47.4 -9.4 -11 -26.7 -18.9 -46.1 -21.2 l-5.8 -0.7 0 -7.9 c0 -4.4 0 -8.2 -0.1 -8.6 0 -0.5 3.5 -1.4 7.8 -2.1 21.2 -3.5 40.5 -15 47.7 -28.3 4 -7.3 4.7 -17 1.7 -23.2 -4.1 -8.4 -13.3 -15.2 -24 -17.7 -11.7 -2.8 -31.2 1.1 -43.6 8.6 l-5.4 3.2 -4.3 -6.7 c-2.3 -3.6 -4.4 -6.9 -4.6 -7.4 -0.2 -0.4 24.3 -25.8 54.6 -56.5 62.3 -63.2 67.5 -68.8 73.3 -79.2 2.3 -4.1 4.8 -8.4 5.5 -9.6 0.8 -1.3 4 -2.9 9.1 -4.5 6.6 -2 9.8 -2.4 20.8 -2.4 12.1 0 13.7 0.3 22.4 3.3 21.3 7.4 40.4 22.7 54.4 43.4 11.2 16.7 23.5 46.1 29.6 70.8 10.2 41.5 14.1 93.9 11.1 150.3 -2.1 40.4 -8.4 74 -19.5 105 -13.5 37.8 -30.1 60.9 -55.6 76.9 -11.2 7.1 -21.6 11.1 -33.8 13.2 -9.2 1.6 -10.8 1.6 -18.1 1z"/>
  <path d="M552.5 390.7 c-4.9 -1.7 -9.1 -3.2 -9.3 -3.3 -0.2 -0.1 0.4 -5.3 1.4 -11.5 3.2 -22.3 -0.9 -40.7 -11.9 -52.6 -5.7 -6.1 -10.7 -8.5 -19.3 -9.1 -20.5 -1.3 -33.5 14 -35.9 42.5 -0.6 6.9 -0.1 13.8 2.1 26.4 l0.6 3.6 -9 3.1 c-5 1.8 -9.5 3.2 -10 3.2 -0.4 0 -3.5 -3.9 -6.7 -8.7 -7.7 -11.4 -20.1 -23.8 -28.5 -28.3 -6.1 -3.3 -7.1 -3.5 -15.5 -3.5 -8 0 -9.5 0.3 -13.6 2.7 -9.5 5.6 -15.5 14.8 -16.7 25.9 l-0.7 6 -41 -41.3 c-38.4 -38.7 -41.3 -41.8 -45.2 -49.3 -8.2 -16.1 -10.9 -28.8 -9.9 -46.5 1.6 -27.8 12 -49.4 34.4 -71.2 30 -29.2 69.6 -44.7 130.2 -51 8.5 -0.9 28.7 -1.3 63 -1.3 42 0 53.2 0.3 66.5 1.8 16.2 1.8 38.3 5.6 48.8 8.3 21.2 5.5 47.4 16.6 61.5 26.3 29.5 20.1 48.3 47.7 53.1 78.1 3.1 19.1 -0.8 39.6 -10.8 56.4 -2.1 3.6 -10 12.8 -19 22.1 -21.9 22.7 -66.5 67.5 -67.1 67.5 -0.3 0 -0.6 -2.2 -0.7 -5 -0.5 -11.6 -6.1 -21.2 -15.3 -26.4 -4.9 -2.8 -6.4 -3.1 -13.5 -3.1 -6.5 0 -9 0.5 -13.5 2.6 -11.7 5.5 -22.8 16.3 -32.8 31.6 -2.6 4 -5.1 7.2 -5.7 7.2 -0.5 -0.1 -5 -1.5 -10 -3.2z"/>
 </g>
 <g fill="#da9f43">
  <path d="M504.2 700 c-2 -1.3 -4.2 -3.9 -5.5 -6.8 -2 -4.2 -2.2 -6.4 -2.2 -19.9 0 -19.5 -0.7 -18.7 15.4 -18.9 6.6 -0.1 12.5 0.3 13.3 0.7 1 0.6 1.3 4.7 1.3 17.1 0 15.5 -0.1 16.6 -2.5 21.3 -4.1 8.1 -12.7 10.8 -19.8 6.5z"/>
  <path d="M407.5 668.6 c-5.1 -2.3 -6.9 -5.1 -7.3 -11.9 -0.3 -4.6 0.2 -7.7 1.8 -12 2.2 -6 9.9 -18.1 14.5 -22.9 l2.5 -2.8 6.3 4.6 c3.4 2.5 9.2 6.4 13 8.6 l6.8 4 -3.2 5.6 c-8.3 14.8 -14.8 22.3 -22.4 25.8 -5.7 2.7 -7.8 2.9 -12 1z"/>
  <path d="M605.3 668 c-7.3 -3.3 -16 -13.5 -22.6 -26.6 l-2.6 -5.1 7.2 -4.1 c4 -2.3 9.8 -6.1 13 -8.4 6.8 -4.9 6 -5.3 15 7.5 12.2 17 13.4 30.6 3.4 36.7 -4 2.5 -8 2.5 -13.4 0z"/>
  <path d="M352.7 583 c-11.3 -2.1 -16.7 -14 -10.3 -22.4 4.9 -6.5 16.3 -11.8 29.9 -13.9 l8.2 -1.3 3.1 12.6 c1.8 6.9 3.4 13.1 3.6 13.9 0.7 2.9 -16.4 10.2 -26.7 11.4 -2.2 0.2 -5.7 0.1 -7.8 -0.3z"/>
  <path d="M652.5 580.6 c-9.7 -3.1 -17.6 -7.7 -16.9 -9.6 0.3 -0.8 1.8 -6.4 3.4 -12.4 1.5 -6 3.4 -11.3 4.1 -11.8 3.9 -2.6 24.5 3 32.9 8.9 6.6 4.7 9.3 9.3 8.6 14.7 -1.4 11.6 -14.8 15.9 -32.1 10.2z"/>
  <path d="M367 491.7 c-9.7 -2.9 -19.6 -8.4 -23.3 -12.9 -5.8 -7.2 -5 -15 2 -19.8 3.1 -2.1 4.7 -2.5 11.2 -2.4 9 0.1 13.9 1.4 24.4 6.2 5.8 2.6 7.7 4 7.4 5.1 -0.3 0.9 -2 7.1 -3.9 13.8 l-3.3 12.3 -3.5 -0.1 c-1.9 0 -6.9 -1 -11 -2.2z"/>
  <path d="M640.6 489 c-0.4 -2.8 -1.9 -8.9 -3.4 -13.5 -3.1 -9.5 -3.3 -8.9 4.3 -12.8 22.8 -11.4 45.7 -6.6 42.7 8.9 -0.7 3.9 -8.4 11.2 -15.9 15.2 -6.3 3.3 -19.4 7.2 -24.3 7.2 -2.5 0 -2.8 -0.4 -3.4 -5z"/>
  <path d="M413.5 413.8 c-11.2 -12.4 -16.7 -26.7 -13.6 -36.1 2.5 -7.5 10.1 -9.8 18.4 -5.6 5.8 3 16 13.1 21.2 21 6.3 9.4 6.3 9 0.3 12.9 -2.9 1.9 -8.3 6 -12 9.2 -3.7 3.2 -6.9 5.8 -7.2 5.8 -0.2 0 -3.4 -3.3 -7.1 -7.2z"/>
  <path d="M600.9 417.4 c-1.8 -1.9 -7.5 -6.4 -12.6 -9.8 l-9.2 -6.3 5.3 -7.9 c9.7 -14.3 21.2 -23.3 29.9 -23.4 4.8 0 9.3 4.3 10.3 9.7 1 5.5 -2.1 17.1 -6.6 24.5 -3.6 6 -11.9 16.6 -13.1 16.7 -0.3 0.1 -2.1 -1.5 -4 -3.5z"/>
  <path d="M497.1 376.3 c-2.8 -18.5 -0.1 -34.5 6.8 -40.7 1.2 -1.1 4.1 -2.1 6.9 -2.4 4.1 -0.3 5.2 0 7.9 2.2 1.7 1.4 4.1 4.9 5.4 7.8 2.1 4.8 2.3 6.6 2.2 19.8 0 8 -0.5 15.8 -1 17.5 l-0.9 2.9 -13.1 0.2 -13.1 0.1 -1.1 -7.4z"/>
 </g>
</svg>