<?xml version="1.0" encoding="utf-8"?>
<!DOCTYPE svg PUBLIC "-//W3C//DTD SVG 1.0//EN" "http://www.w3.org/TR/2001/REC-SVG-20010904/DTD/svg10.dtd">
<svg version="1.0" xmlns="http://www.w3.org/2000/svg" width="1024px" height="1024px" viewBox="0 0 1024 1024" preserveAspectRatio="xMidYMid meet">
 <g fill="#2e2e2e">
  <path d="M500.3 927 c-2.8 -0.4 -8.4 -1.8 -12.4 -3 -5.4 -1.6 -6.9 -2.4 -5.8 -3.1 1.1 -0.8 0.9 -0.9 -0.6 -0.5 -2.3 0.7 -11 -3.5 -11 -5.2 0 -0.6 -0.7 -1.7 -1.5 -2.4 -1.2 -1.1 -1.2 -1.1 -0.1 0.5 2.8 3.6 -0.9 1.4 -7.2 -4.3 -8.4 -7.7 -14.2 -15.5 -19.9 -26.6 -5.3 -10.2 -11.1 -26.1 -10.3 -28.1 0.2 -0.8 0.1 -1.2 -0.4 -0.9 -0.5 0.3 -1.1 -0.9 -1.5 -2.6 -0.4 -2.1 -0.2 -3.4 0.6 -4 0.9 -0.5 0.8 -0.8 -0.6 -0.8 -1.5 0 -1.8 -0.5 -1.2 -3.2 0.4 -2.1 0.3 -2.8 -0.3 -1.9 -0.6 0.9 -1.4 -1.7 -2.5 -7.5 -3.2 -18.1 -3.8 -24.4 -4.5 -47.9 l-0.6 -24 -4.7 7.3 c-2.7 3.9 -5.5 7.2 -6.3 7.2 -0.8 0 -1.5 0.5 -1.5 1.1 0 0.5 0.5 0.7 1.2 0.3 1.5 -1 -2.3 4.6 -8 11.6 -7.3 8.9 -20.5 21.9 -21.5 21.3 -0.6 -0.3 -0.7 -0.2 -0.4 0.4 0.8 1.3 -15.6 16.3 -17.9 16.3 -0.4 0 0.1 -0.7 1.2 -1.6 1.8 -1.4 1.8 -1.5 -0.3 -0.4 -1.3 0.6 -2.2 1.5 -2 2 0.3 1.2 -6.4 6.1 -7.4 5.4 -0.5 -0.3 -0.9 -0.1 -0.9 0.5 0 1.6 -11.3 7.5 -14 7.3 -1.5 -0.1 -2 0.1 -1.3 0.6 1.8 1.1 -7.2 5.3 -18.7 8.8 -8.5 2.5 -11 2.8 -24.5 2.8 -10.2 0.1 -16.6 -0.4 -19.9 -1.3 -4.1 -1.2 -4.6 -1.6 -3 -2.3 1.4 -0.6 1.2 -0.7 -0.8 -0.3 -3.3 0.6 -16 -4.7 -15.6 -6.6 0.2 -0.6 -0.4 -1.4 -1.2 -1.6 -1.3 -0.4 -1.3 -0.3 0 0.6 0.8 0.6 1.1 1.1 0.7 1.1 -1.8 0 -6.7 -4.2 -6.1 -5.2 0.4 -0.7 0.2 -0.8 -0.4 -0.4 -0.6 0.3 -2.7 -0.8 -4.6 -2.5 -5.8 -5 -12.3 -15.8 -15.7 -26 -2.8 -8.4 -3.2 -10.9 -3.6 -24.4 -0.6 -16.9 1.2 -28.2 6.9 -45 3.8 -11.3 10.8 -26.5 12.1 -26.5 0.6 0 0.8 -0.3 0.4 -0.6 -1 -1.1 2.3 -6.5 3.5 -5.8 0.7 0.4 0.8 0.3 0.4 -0.5 -1.2 -1.9 16.4 -27.8 23.8 -35.1 4.2 -4.2 4.3 -4.5 1.2 -4.5 -1.3 0 -2.2 0.2 -2 0.4 0.6 0.6 -7.9 3.8 -15.1 5.7 -3.3 0.8 -6.8 1.8 -7.9 2.1 -1.3 0.4 -1.6 0.2 -1.1 -0.8 0.6 -0.9 0.2 -1.1 -1.6 -0.6 -1.3 0.4 -2.8 0.7 -3.4 0.8 -0.5 0 -0.1 0.4 1 0.8 1.4 0.6 -0.6 1.3 -7.5 2.5 -13.1 2.4 -28.1 3.5 -30.4 2.3 -1.3 -0.6 -1.6 -0.6 -1.2 0.2 0.5 0.8 -0.7 1 -4.1 0.7 -2.6 -0.3 -8.2 -0.8 -12.3 -1.1 -14.3 -1.1 -42.9 -10.1 -42.3 -13.3 0.2 -0.6 -0.3 -0.9 -1 -0.6 -1.5 0.5 -12.4 -7.1 -17.3 -12.1 -5.1 -5.3 -8.6 -10.4 -7.9 -11.5 0.4 -0.6 0.1 -0.9 -0.5 -0.8 -1.5 0.4 -6.2 -8.3 -5.6 -10.5 0.2 -0.9 0.1 -1.5 -0.4 -1.2 -1.9 1.1 -5 -13.7 -5.1 -23.9 -0.1 -9.4 2.8 -23.7 4.3 -21.5 0.7 1 0.8 0.8 0.3 -0.8 -0.7 -2.4 5.2 -15.6 6.6 -14.8 0.4 0.3 1.1 0 1.5 -0.6 0.4 -0.8 0.3 -0.9 -0.4 -0.5 -1.8 1.1 -1.4 -0.1 1.4 -4.4 1.5 -2.2 3.1 -3.7 3.7 -3.3 0.5 0.3 0.7 0.1 0.4 -0.5 -1.6 -2.4 20.9 -24.2 23.4 -22.6 0.5 0.3 0.8 0 0.7 -0.7 -0.2 -0.6 0.3 -1.4 1.1 -1.7 0.9 -0.3 1.1 0 0.6 0.8 -0.5 0.9 -0.4 1.1 0.4 0.6 0.6 -0.4 0.9 -1.1 0.6 -1.6 -0.8 -1.3 6.5 -5.9 8.3 -5.3 0.9 0.4 1.3 0.2 0.9 -0.5 -0.7 -1 8 -6.6 11.3 -7.4 0.8 -0.2 1.7 -0.6 2 -0.9 1.2 -1.5 15.2 -7.9 16 -7.4 0.6 0.4 1 0.2 1 -0.3 0 -1 18 -7.7 27.3 -10.2 4.1 -1.1 5 -1.1 5.8 0.1 0.7 1.1 0.9 1.1 0.9 -0.3 0 -1.3 0.8 -1.8 2.6 -1.8 2.2 0 2.5 -0.2 1.4 -1.5 -0.7 -0.8 -2.2 -1.5 -3.4 -1.5 -2.5 -0.1 -8.7 -2.8 -6.6 -2.9 1.3 -0.1 1.3 -0.2 0 -1.1 -2.1 -1.3 -3.3 -1.2 -2.4 0.2 0.5 0.8 0.2 0.9 -1 0.5 -1 -0.4 -2.2 -0.7 -2.7 -0.7 -0.6 0 -0.7 -0.5 -0.3 -1.2 0.4 -0.7 0.3 -0.8 -0.5 -0.4 -0.6 0.4 -2.1 0.4 -3.2 0.1 -1.7 -0.6 -1.9 -0.9 -0.8 -1.7 1.1 -0.8 1 -0.9 -0.3 -0.4 -3.4 1.1 -31.4 -13.6 -30.1 -15.7 0.3 -0.6 0.1 -0.7 -0.5 -0.3 -1.4 0.8 -8.7 -3.9 -8.7 -5.7 -0.1 -0.6 -0.7 -1.1 -1.4 -0.9 -2.4 0.5 -24.5 -18.4 -23.4 -20.1 0.3 -0.5 0.2 -0.7 -0.4 -0.4 -2.8 1.7 -21.2 -23.5 -22.5 -30.8 -0.1 -1.1 -0.8 -2.6 -1.5 -3.2 -1.7 -1.8 -5.3 -18.2 -5.3 -24.1 0 -8.5 2.7 -19.8 6.9 -28.8 2.2 -4.7 4.5 -8.3 5 -8 0.5 0.4 1.3 0.1 1.7 -0.5 0.4 -0.8 0.3 -0.9 -0.4 -0.5 -0.7 0.4 -1.2 0.3 -1.2 -0.2 0 -1.6 12.1 -14.2 13.1 -13.6 0.5 0.3 0.9 0 0.9 -0.5 0 -1.9 10.5 -8.2 12.6 -7.5 1.4 0.4 1.6 0.3 0.5 -0.4 -1.1 -0.8 -1 -1.2 0.8 -2.2 1.3 -0.6 2.9 -0.9 3.7 -0.6 0.8 0.3 1.3 0.2 1 -0.3 -0.7 -1.1 8.6 -4.6 17.5 -6.6 8.6 -1.9 27.4 -3.5 34.1 -2.9 17.8 1.6 23.6 2.7 23.1 4 -0.3 1 0.2 1.4 1.8 1.4 1.9 0 2.1 -0.2 0.9 -1 -1.3 -0.8 -1.2 -1 0.3 -1 0.9 0 1.7 0.5 1.7 1.1 0 0.5 0.4 0.8 0.9 0.5 1 -0.7 17.8 3.5 23 5.7 2.2 0.9 2.9 1.6 2 2 -0.8 0.3 0.1 0.6 1.9 0.6 1.9 0.1 4.8 0.7 6.5 1.5 4 1.8 10.8 4.6 11.3 4.6 1 0 0.2 -1.9 -1.8 -4 -4.8 -5.2 -10.8 -14.1 -10.2 -15.2 0.4 -0.6 0.3 -0.8 -0.3 -0.5 -1.6 1 -15.9 -23.5 -14.8 -25.3 0.3 -0.6 0.2 -1 -0.3 -1 -0.9 0 -6.2 -11.2 -6.2 -13.1 0 -0.6 0.5 -0.7 1.2 -0.3 0.7 0.4 0.8 0.3 0.4 -0.5 -0.4 -0.6 -1.1 -0.9 -1.6 -0.6 -1 0.6 -2.3 -4.3 -1.4 -5.7 0.4 -0.6 0.3 -0.8 -0.3 -0.5 -1.2 0.7 -5.8 -15.1 -7.2 -24.8 -1.9 -13.3 -2.3 -24.9 -1.2 -31.5 1.9 -10.9 2.2 -12 3.1 -11.5 0.4 0.3 0.6 -0.3 0.3 -1.3 -0.7 -2.7 5.3 -15.5 6.8 -14.6 0.8 0.4 0.9 0.3 0.5 -0.5 -1 -1.5 4.2 -8.4 5.6 -7.5 0.6 0.4 0.8 0.2 0.4 -0.4 -0.8 -1.4 6.3 -8.4 7.7 -7.5 0.5 0.3 0.7 0.1 0.4 -0.4 -1 -1.6 9.5 -8.5 11.9 -7.7 1.4 0.4 1.5 0.3 0.5 -0.4 -1.7 -1.2 7.1 -4.7 16.9 -6.7 8.8 -1.9 25 -1.2 34.8 1.5 10.4 2.8 25.2 9.8 24.5 11.6 -0.3 0.8 -0.1 1.4 0.5 1.4 0.6 0 1.9 0.3 2.9 0.6 1.6 0.6 1.6 0.5 -0.2 -1.1 -1.9 -1.7 -1.9 -1.7 0.5 -0.3 7.1 4.1 12.9 8.2 12.4 8.9 -0.3 0.5 0.3 0.9 1.3 0.9 1 0 3.6 1.6 5.8 3.6 2.2 2 3.2 3.1 2.3 2.4 -1.3 -0.9 -1.8 -0.9 -1.8 -0.1 0 0.6 1.3 1.4 2.9 1.7 1.6 0.4 4.4 2.2 6.3 4.2 1.8 2 2.3 2.8 1.1 1.8 -2.3 -1.9 -2.3 -1.9 -2.3 0 0 1.4 0.8 2 2.7 2.2 3.5 0.3 17.9 14.2 16 15.4 -0.8 0.5 -0.7 0.8 0.5 0.8 2.2 0 5.8 4.7 5.1 6.8 -0.4 1.3 -0.3 1.4 0.5 0.3 0.7 -1 1.7 -0.2 4.2 3.5 1.9 2.6 3.3 5.3 3.3 6 0 0.7 0.4 1.1 0.8 0.9 0.4 -0.3 1.4 0.6 2.3 2 1.8 2.8 2.1 3.9 0.6 3 -0.5 -0.3 -1 -0.1 -1 0.5 0 0.7 0.7 1 1.4 0.7 1 -0.4 2.3 0.7 3.7 2.9 1.2 1.9 2.3 3.4 2.5 3.2 0.2 -0.2 -0.1 -3.3 -0.6 -6.8 -1.4 -9 -0.5 -39.4 1.4 -51.9 0.9 -5.7 2.8 -14.9 4.1 -20.4 2.8 -11.2 10.5 -29.3 12.3 -29 0.7 0.2 0.9 -0.4 0.5 -1.4 -0.5 -1.2 -0.3 -1.4 0.7 -0.8 1 0.6 1.2 0.4 0.7 -0.8 -0.8 -2.2 7.9 -14.1 9.6 -13.1 0.7 0.4 0.9 0.3 0.4 -0.1 -0.8 -0.9 9 -11.5 10.6 -11.5 0.4 0 0.5 0.5 0.1 1.2 -0.4 0.7 -0.3 0.8 0.5 0.4 0.6 -0.4 0.9 -1.2 0.6 -1.7 -0.8 -1.2 10.2 -8.1 18 -11.3 6.6 -2.7 21 -5.6 27.3 -5.6 6 0 2.9 1 -4.8 1.5 -12.4 0.9 -9.2 1.6 6.5 1.4 14.5 -0.2 16.8 0 22.8 2.3 2.1 0.8 2.5 1.3 1.5 2 -0.8 0.5 -0.2 0.6 1.5 0.2 2.4 -0.5 2.9 -0.3 3.4 1.6 0.4 1.5 1.1 2 2.5 1.7 2.1 -0.6 11.4 5.5 11 7.2 -0.1 0.6 0.7 1.1 1.7 1.1 2.2 0 12.4 10.9 11.7 12.5 -0.2 0.7 0 1.8 0.6 2.6 0.8 1.1 0.9 1 0.4 -0.3 -0.9 -2.9 0.2 -2.1 2.9 2 1.7 2.5 2.3 4.5 1.9 5.7 -0.5 1.3 -0.4 1.6 0.4 1.1 1.5 -0.9 8.3 12.9 7.5 15.2 -0.4 0.9 -0.2 1.3 0.4 0.9 1.2 -0.8 5.2 10.3 7.8 21.6 1.8 8.1 1.9 9.8 0.4 7.7 -0.8 -1.2 -0.9 -1 -0.5 1 0.3 1.4 0.6 3 0.7 3.5 0 0.6 0.5 0.1 1 -1 0.7 -1.4 0.8 -0.4 0.4 3.5 -0.2 3.2 -0.1 4.7 0.4 3.5 0.6 -1.6 0.9 -1.2 1.4 2 1.3 7.6 2.9 33.2 2.5 40.8 -0.1 4.3 0 7.7 0.4 7.7 0.3 0 1.8 -2 3.3 -4.5 1.4 -2.5 3 -4.3 3.5 -4 0.5 0.3 1.2 0 1.6 -0.6 0.4 -0.8 0.3 -0.9 -0.4 -0.5 -1.7 1 -1.5 -0.9 0.1 -2.3 0.8 -0.6 1.8 -0.7 2.2 -0.3 0.5 0.4 0.5 0.2 0.1 -0.5 -0.9 -1.6 2.3 -6.5 3.8 -5.6 0.6 0.3 0.8 0.3 0.4 -0.2 -0.4 -0.4 0.2 -2.2 1.4 -3.8 5.9 -8.2 27.1 -29.2 29.6 -29.2 1 -0.1 1.6 -0.6 1.5 -1.3 -0.6 -2.5 24.3 -18.2 36.4 -23 12.8 -5.1 19.5 -6.4 33.3 -6.4 13.6 0 24.2 2.4 27.8 6.2 1 1 2.6 1.8 3.7 1.8 2.5 -0.2 10.8 4.9 10 6.2 -0.3 0.5 0 1.2 0.6 1.6 0.8 0.4 0.9 0.3 0.5 -0.4 -1.1 -1.8 0.1 -1.4 2.9 1 1.3 1.1 2.2 2.6 1.8 3.1 -0.3 0.6 -0.1 0.7 0.4 0.4 2.4 -1.5 13.5 14.7 12.6 18.3 -0.4 1.4 -0.1 2 1 2 1.9 0 4.2 6.9 5.9 17.5 1.2 8 0.5 29.8 -1.1 30.3 -0.5 0.2 -0.7 1 -0.4 1.8 0.9 2.5 -1.8 14.4 -3.3 14.4 -0.8 0 -1.4 0.5 -1.4 1.1 0 0.5 0.5 0.7 1 0.4 1.3 -0.8 1.3 0.7 -0.2 4.2 -0.6 1.5 -1.3 3.8 -1.5 5.1 -0.7 4.4 -6.5 18.2 -7.4 17.7 -0.5 -0.4 -0.6 0 -0.4 0.8 0.7 1.8 -8.3 19.9 -9.6 19.2 -0.5 -0.3 -0.7 0 -0.4 0.7 0.6 1.4 -12.4 22 -14.7 23.4 -0.7 0.5 -1.7 0.9 -2.3 0.9 -0.5 0.1 -0.9 0.7 -0.7 1.4 0.1 0.7 -0.5 1.9 -1.5 2.6 -3.2 2.3 -0.6 2.7 3.6 0.6 7.6 -3.9 14.6 -6.4 17.6 -6.2 1.9 0.1 2.5 -0.2 1.7 -0.7 -0.8 -0.6 2.4 -2 9 -4 13.9 -4.2 20.9 -5.7 21.7 -4.5 0.6 0.8 1.5 0.8 7.4 -0.1 5.1 -0.8 4.4 -1.9 -0.8 -1.3 -3.9 0.5 -4.3 0.4 -2.1 -0.3 8.5 -2.7 28.9 -3.1 43.8 -1 3.7 0.6 6.9 1 7.2 1 0.3 0 0.5 0.5 0.3 1.2 -0.1 0.6 0.7 1.3 1.8 1.5 1.6 0.3 1.7 0.2 0.5 -0.6 -2.3 -1.6 0.1 -1.3 6.1 0.8 9.2 3.1 15.9 6.3 15.3 7.2 -0.3 0.5 0.2 0.9 1.1 0.9 3.1 0 10.2 5 16.7 11.7 7.7 8 10.2 11.8 9.2 13.4 -0.4 0.8 -0.3 0.9 0.4 0.5 1.6 -1 5.4 6.8 4.7 9.7 -0.3 1.2 0.1 3.6 0.9 5.2 0.9 1.7 1.6 4.1 1.7 5.5 l0.1 2.5 0.7 -2.5 c0.7 -2.3 0.8 -2.1 1.4 1.5 2.3 13.4 0.1 29.8 -5.7 42.9 -3.4 7.7 -9.6 16.7 -10.9 15.9 -0.5 -0.3 -0.7 -0.1 -0.3 0.5 0.8 1.4 -4.3 7.4 -5.6 6.5 -0.6 -0.3 -0.8 -0.1 -0.5 0.4 0.8 1.2 -10 11.9 -11.5 11.5 -0.5 -0.1 -0.7 0.2 -0.4 0.7 0.8 1.3 -2.1 3.4 -3.5 2.5 -0.8 -0.4 -0.9 -0.3 -0.5 0.4 0.9 1.4 -11.2 10.5 -12.7 9.5 -0.5 -0.3 -0.7 -0.2 -0.4 0.3 0.6 1.1 -5.7 5.7 -7.8 5.7 -0.8 0 -1.2 0.4 -0.9 0.8 0.7 1.2 -10.8 7.3 -13.3 7.1 -1.2 -0.1 -2.5 0.3 -2.8 0.8 -0.3 0.6 0.2 0.7 1.2 0.4 1 -0.3 -1.3 1.2 -5.2 3.2 -3.8 2 -8.3 3.6 -10 3.6 -1.6 0 -2.4 0.2 -1.7 0.7 1.1 0.7 -12.7 6.3 -19 7.7 -3.2 0.7 -3.8 2.4 -0.9 2.4 1 0 2.5 0.9 3.2 1.9 0.9 1.3 3.1 2.1 6.4 2.4 4.6 0.6 4.8 0.5 1.5 -0.4 -1.9 -0.6 -4.4 -1.5 -5.5 -2 -3.4 -1.6 3 -0.1 13.9 3.3 7.4 2.2 9.6 3.2 8.5 4 -1.1 0.8 -1 0.9 0.4 0.4 2.7 -0.9 6.7 0.4 6.7 2.1 0 0.9 0.8 1.3 2.3 1.2 3.2 -0.4 9.9 2 9.1 3.3 -0.4 0.6 -0.2 0.8 0.4 0.5 1.7 -1.1 4.2 0.4 4.2 2.5 0 1.7 0.5 1.9 2.8 1.5 3 -0.6 14.3 4.7 13.9 6.6 -0.1 0.6 0.8 1.2 2.1 1.3 2.7 0.2 10.8 5.8 10.5 7.3 -0.2 0.6 0.3 0.8 1 0.5 1.5 -0.6 17.9 14.5 17.1 15.7 -0.3 0.5 0 0.8 0.6 0.7 0.6 -0.2 3.2 2.6 5.8 6.2 2.6 3.5 4.1 6.1 3.4 5.6 -0.8 -0.5 -1.2 0 -1.2 1.3 0 1.9 1 2.6 3.3 2.2 0.8 -0.1 5 8.6 6.2 12.9 0.5 1.9 0.4 2.1 -0.4 1 -0.9 -1.2 -1.1 -1.1 -1.1 0.7 0 1.6 0.4 2.1 1.5 1.7 0.9 -0.4 1.5 -0.1 1.5 0.7 0 0.8 0.3 2.5 0.7 3.8 0.4 1.7 0.3 2.2 -0.5 1.7 -0.8 -0.5 -1.1 0.1 -1 1.8 0.2 2.8 1.3 3.4 2.1 1.4 0.3 -0.7 0.6 0.5 0.7 2.7 0.1 2.2 0.3 5 0.6 6.3 0.2 1.3 0 2.1 -0.4 1.8 -0.4 -0.2 -0.6 1.2 -0.4 3.1 0.7 5.7 -1.7 17.5 -3.4 16.9 -0.8 -0.3 -1.4 0.1 -1.4 1 0 0.8 0.5 1.2 1 0.9 1.6 -1 1.2 0.1 -2.5 8.3 -2.5 5.2 -3.8 7.3 -4.4 6.4 -0.7 -1.1 -1 -1 -1.4 0.3 -0.4 0.9 -0.3 1.3 0.3 1 0.6 -0.3 1 -0.2 1 0.4 0 0.5 -3.4 4.5 -7.6 8.8 -4.1 4.3 -7.3 7.3 -7 6.6 0.4 -0.7 -0.1 -1 -1.1 -0.9 -0.9 0.2 -1.9 0.9 -2.1 1.6 -0.3 0.7 0 1 0.7 0.6 0.6 -0.4 1.1 -0.5 1.1 -0.2 0 1.5 -8.3 6.4 -9.7 5.9 -1 -0.4 -1.4 -0.2 -1 0.5 1.8 2.7 -26.3 12.5 -36.5 12.6 -3.1 0.1 -5.1 0.4 -4.5 0.8 1.5 0.9 -17.9 1.4 -27.8 0.7 -4.4 -0.3 -6.5 -0.6 -4.6 -0.7 4.4 -0.3 3.8 -0.8 -1.8 -1.5 -2.9 -0.4 -4 -0.2 -3 0.4 2.4 1.5 -2.3 1.1 -14.7 -1.2 -7.3 -1.4 -11.1 -2.5 -10.7 -3.2 0.4 -0.6 0 -0.8 -1.1 -0.4 -2.3 0.9 -13.6 -2.3 -13.6 -3.9 0 -0.6 -0.7 -1.5 -1.6 -1.8 -1.5 -0.6 -1.5 -0.4 -0.3 1.1 1.2 1.5 1.2 1.6 -0.4 1 -1 -0.4 -2.3 -0.7 -2.8 -0.7 -0.6 0 -0.8 -0.4 -0.4 -0.9 0.3 -0.5 0 -1.3 -0.6 -1.7 -0.8 -0.4 -0.9 -0.3 -0.5 0.4 0.9 1.6 -1.7 1.5 -3.2 0 -0.6 -0.6 -1.5 -0.8 -1.9 -0.5 -0.4 0.4 1.2 2.6 3.4 5 5.1 5.2 15.3 18.5 15.4 20.1 0.1 0.6 0.1 1.6 0 2.3 -0.1 0.6 0.3 1.4 0.9 1.8 0.6 0.3 0.7 0 0.4 -0.9 -1.5 -3.8 0.8 -1 5.4 6.7 6.6 10.9 10.3 18.3 9.5 19.1 -0.4 0.3 -0.2 0.6 0.4 0.6 1 0 3.3 4.2 3.3 6.1 0 0.6 -0.5 0.7 -1.2 0.3 -0.7 -0.4 -0.8 -0.3 -0.4 0.5 0.4 0.6 1.1 0.9 1.5 0.7 1 -0.7 4.5 9.2 4.6 12.9 0 1.7 0.4 3.1 1 3.2 1 0.2 2.3 2.9 2.4 5.1 0.1 0.7 -0.3 1.1 -0.7 0.8 -0.5 -0.3 -0.9 0.2 -0.9 1 0 0.8 0.6 1.3 1.2 1 2 -0.7 3.7 9.5 4.2 25.4 0.5 12.8 0.3 15.7 -1.7 23.5 -1.2 5 -4 12.5 -6.2 16.7 -4.2 8.2 -11.1 16.9 -13.1 16.5 -0.7 -0.1 -1.1 0.3 -1 1 0.4 1.9 -6.6 7.1 -15.2 11.3 -11.8 5.8 -19.5 7.3 -34 6.7 -13.2 -0.5 -24.4 -2.5 -21 -3.7 1.4 -0.5 0.8 -0.7 -2 -0.7 -5.1 0.1 -20.2 -6.2 -18.3 -7.5 0.9 -0.6 0.6 -0.7 -0.8 -0.4 -1.4 0.5 -4.8 -1.1 -11.1 -5.1 -8.2 -5.3 -16.9 -11.5 -13.4 -9.7 0.9 0.5 1.2 0.3 0.7 -0.5 -0.4 -0.6 -1.1 -0.9 -1.6 -0.6 -3 1.9 -42.2 -36.8 -40.3 -39.8 0.3 -0.6 0.1 -0.7 -0.4 -0.4 -1.4 0.9 -4.8 -4.2 -4.5 -6.5 0.2 -0.9 -0.6 -1.9 -1.8 -2.3 -2.7 -0.9 -7.2 -7.7 -6.5 -9.7 0.4 -0.9 0.2 -1.9 -0.4 -2.3 -0.7 -0.4 -0.9 0.1 -0.5 1.2 0.4 1.3 0.1 1.2 -1.2 -0.4 -2.1 -2.9 -3.4 -2.9 -2.6 -0.1 0.4 1.6 0.2 1.9 -0.9 1.3 -1.1 -0.7 -1.2 -0.6 -0.2 0.6 4 4.9 2 41.1 -3.9 71.2 -1.6 8.2 -2.5 10.7 -3.7 10.7 -1.3 0 -1.3 0.2 -0.2 0.9 0.8 0.6 1.1 1.6 0.6 3.1 -0.6 1.8 -0.9 2 -1.7 0.9 -0.7 -1 -0.8 -0.6 -0.4 1.3 1.1 4.9 -8.1 26.5 -16.6 39.1 -2.1 3.2 -4.3 5.5 -4.9 5.2 -0.5 -0.4 -0.8 -0.2 -0.7 0.3 0.2 0.5 -0.8 2.4 -2.1 4.2 -1.8 2.6 -2.5 3 -3.3 1.9 -0.8 -1.1 -0.9 -1 -0.5 0.3 0.6 1.8 -7.1 8.3 -15.3 13 -13.6 7.8 -32.5 11.2 -48.7 8.8z m54.7 -13.5 c0.7 -0.8 0.8 -1.5 0.2 -1.5 -0.5 0 -1.5 0.7 -2.2 1.5 -0.7 0.8 -0.8 1.5 -0.2 1.5 0.5 0 1.5 -0.7 2.2 -1.5z m-30.6 -8.5 c13.5 -4.2 24.6 -12.8 32.5 -25 12.5 -19.3 19.8 -42.7 23.6 -75.5 2.5 -21.5 1.4 -42.2 -3.5 -67.5 -3.3 -17.1 -12 -46 -13.9 -46 -0.4 0 -4.7 0.9 -9.6 1.9 -26.2 5.7 -64.8 5.1 -90.9 -1.5 -2 -0.5 -2.5 0.1 -4.5 4.8 -6.5 15.6 -13.1 46.8 -15 71.3 -2.8 35.3 4.8 78.5 18.4 104.1 7.6 14.5 16.7 24.3 28 30.2 10.4 5.4 23.7 6.6 34.9 3.2z m-221 -53.8 c0.2 -0.4 -1.3 -0.6 -3.5 -0.4 -2.1 0.2 -3.9 0.6 -3.9 0.8 0 0.7 6.9 0.4 7.4 -0.4z m-4.8 -18.3 c22 -3.9 46 -17.8 67.6 -39.3 18.4 -18.3 33.6 -39.6 46.7 -65.6 8.2 -16.1 20.1 -43.2 20 -45.3 0 -0.6 -4.8 -4 -10.7 -7.5 -16.8 -9.9 -27.5 -18.3 -44.6 -35.4 l-15.8 -15.8 -3.7 2.2 c-8.7 5.2 -29.3 19.6 -37.8 26.5 -42.8 34.4 -72.1 82.1 -75.9 123.5 -2.5 27.5 13.9 50.5 40.1 56.3 7.6 1.7 7.1 1.7 14.1 0.4z m443.5 -1.5 c13.7 -4.1 24.8 -13.4 31.1 -26.1 4.8 -9.7 6.2 -16.6 5.5 -28.3 -2.6 -44.5 -39.6 -99.6 -91.8 -136.6 -11.3 -8 -24.9 -16.4 -26.7 -16.4 -0.5 0 -2.4 1.9 -4.3 4.3 -14.5 18.1 -42.8 41.5 -62.1 51.3 l-4.6 2.4 2.8 7.2 c22.8 59.1 54.7 101.7 95.7 128.2 20.3 13.1 40.2 18.2 54.4 14z m-140.1 -39.1 c0 -2.1 -0.3 -2.4 -0.9 -1.4 -0.5 0.8 -0.7 2 -0.4 2.8 0.8 2.1 1.3 1.5 1.3 -1.4z m0.9 -10.6 c0 -2.1 -0.1 -2.1 -0.9 -0.2 -1.2 2.8 -1.2 3.7 0 3 0.6 -0.3 1 -1.6 0.9 -2.8z m-435.5 -108.5 c0.2 -0.4 -1.2 -0.8 -3.2 -0.9 -3.6 -0.1 -3.6 -0.1 -0.7 0.7 1.7 0.4 3.1 0.8 3.2 0.9 0.1 0 0.4 -0.3 0.7 -0.7z m375.6 -3.6 c29.9 -6.4 54.1 -19.3 76.9 -41.1 35.2 -33.7 54.5 -79.8 52.8 -126 -0.8 -21.8 -5.4 -39.6 -15.7 -61 -23.3 -48.1 -64.5 -80.6 -116.4 -91.7 -8.2 -1.7 -13.6 -2.2 -28.6 -2.2 -20.7 -0.1 -32.9 1.7 -50.3 7.6 -41.5 13.9 -78.8 48.8 -97.6 91.5 -9.3 21.1 -12.1 33.8 -12.8 57.8 -0.4 15.5 -0.2 19.8 1.7 31 8.8 52.2 41.8 96.4 90 120.5 12.7 6.4 30.2 12.2 43 14.4 5.2 0.8 10.6 1.8 12 2 1.4 0.3 9.5 0.3 18 0.1 11.5 -0.3 18.5 -1 27 -2.9z m-312.6 -13.6 c27.3 -5.4 53.5 -15.8 82.6 -32.7 12.3 -7.2 34 -22.1 34 -23.4 0 -0.5 -1.3 -3.6 -2.9 -6.7 -9.3 -18.5 -18.1 -54.9 -18.1 -75.2 l0 -5.9 -4.7 -0.7 c-6.1 -0.9 -44.3 0.2 -55.3 1.6 -49.5 6.3 -88.9 22.5 -114.3 46.9 -19.1 18.4 -27.1 38.3 -22.1 55.2 6.4 21.7 25.1 36.4 54 42.4 9.8 2.1 32.8 1.3 46.8 -1.5z m615.6 0.1 c13.3 -3.4 24.2 -9.3 33.1 -18.1 10.9 -10.7 16 -22.1 16 -35.4 0 -8.3 -1.4 -13.3 -6.4 -23 -17.6 -34 -74.8 -61.5 -140.2 -67.6 -16.3 -1.5 -49.5 -1.3 -49.9 0.3 -0.2 0.6 -0.9 6.6 -1.5 13.2 -2.1 22.4 -8.4 45.9 -17.6 65.2 -2.5 5.3 -4.5 9.7 -4.5 9.9 0 0.5 20.4 13.8 34.5 22.4 30.6 18.7 64.3 31.2 94.4 35 11.2 1.4 32.5 0.4 42.1 -1.9z m-520 -167.3 c0 -1.5 4.5 -23.1 6.1 -29.2 3.8 -15 12.1 -34.7 20.7 -49.3 l3 -5 -12.2 -9.1 c-36.2 -26.9 -73.7 -46.6 -103.1 -54.2 -22 -5.6 -44.3 -6.7 -59.6 -2.9 -12.9 3.2 -24.2 9.1 -31.5 16.3 -7 7.1 -12.9 18.1 -14.2 26.7 -3.2 21 16.1 48.8 49.3 71.1 34.2 23 66.6 32.3 121.5 34.7 9.6 0.4 18.1 0.9 18.8 0.9 0.6 0.1 1.2 0.1 1.2 0z m395.5 -1.3 c39.5 -1.3 70.1 -8.2 98.1 -22 38.7 -19.1 64.2 -45 68.4 -69.6 2.3 -13.2 -3.3 -29 -14 -40 -6.1 -6.2 -11.9 -9.8 -21.8 -13.9 -21.9 -8.9 -52.4 -7.1 -86 5 -12.1 4.4 -40.7 18.6 -53.2 26.5 -9.7 6.2 -35.7 24.4 -42.4 29.8 l-2.9 2.4 3.7 6.1 c5.7 9.5 13.2 25.7 17 37.2 3.3 9.9 8.6 33.2 8.6 37.8 0 1.9 0.5 2.1 4.8 1.7 2.6 -0.3 11.5 -0.7 19.7 -1z m-323.4 -127.7 c10.5 -8.2 22.4 -15.6 35 -21.9 l9.8 -4.9 -2 -7.2 c-12.8 -46.3 -35.8 -86 -67.5 -116.8 -15.7 -15.2 -26.2 -22.8 -40.4 -29.4 -13.5 -6.1 -26.4 -7.9 -36.9 -5.1 -23.6 6.2 -37.4 26.3 -35.8 52 1.3 21.3 10.1 48.3 22.3 68.8 14.7 24.4 44.3 54.7 80.9 82.4 l8 6.1 9.1 -8.8 c5.1 -4.8 13 -11.7 17.5 -15.2z m259.1 20.5 c33.6 -23.8 62.7 -52.6 79.7 -78.7 13.8 -21.2 23.1 -48.2 25.7 -74.7 0.8 -8.3 -1.5 -19.3 -5.8 -28 -7.9 -15.8 -27.3 -27 -44.3 -25.6 -24.6 2.1 -51.8 20 -78.2 51.6 -19.9 23.9 -34.4 49 -46.8 80.8 -2.4 6.2 -5.3 14.1 -6.4 17.5 -1 3.5 -2.2 7 -2.6 8 -0.5 1.3 1.8 2.8 12 7.7 20.4 9.7 39.1 22.9 54 38 3.8 3.9 7.1 7.1 7.2 7.1 0.2 0 2.7 -1.7 5.5 -3.7z m240.6 -30.3 c-1.4 -2.2 -2.4 -1.9 -1.5 0.5 0.4 0.8 1.1 1.5 1.7 1.5 0.6 0 0.6 -0.7 -0.2 -2z m-7.4 -9.1 c-0.9 -1.1 -2 -1.7 -2.3 -1.3 -0.3 0.3 0.2 1 1.2 1.5 0.9 0.6 1.4 1.5 1.1 2.1 -0.5 0.7 -0.2 0.8 0.5 0.4 0.9 -0.6 0.8 -1.3 -0.5 -2.7z m-631.8 -15.1 c-0.9 -0.5 -2.2 -0.7 -2.9 -0.4 -0.7 0.2 -0.4 0.5 0.6 0.5 1 0.1 1.5 0.5 1.2 1.1 -0.4 0.6 0.1 0.7 1.1 0.3 1.5 -0.6 1.5 -0.7 0 -1.5z m228.2 -2.3 c15.2 -2 30.6 -1.9 48.7 0.5 8.3 1.1 15.5 2 16.1 2 2.2 0 12.9 -30.8 18.9 -54.7 11.3 -45 8 -91.9 -9 -126.8 -5.7 -11.9 -11 -18.8 -19.7 -25.7 -13.4 -10.7 -28.6 -14.3 -41.8 -9.8 -19 6.3 -33.7 21.2 -42.6 43 -8.4 20.7 -12.7 55.2 -10.4 84 2.1 26.3 6.1 45.6 15.7 74.1 l5.6 16.6 3.6 -0.8 c2 -0.5 8.7 -1.6 14.9 -2.4z m-92.3 -125.5 c-1 -1.1 -2 -1.8 -2.3 -1.6 -0.5 0.6 2.1 3.5 3.2 3.6 0.5 0 0.1 -0.9 -0.9 -2z"/>
 </g>
 <g fill="#eeb838">
  <path d="M495 675.4 c-1.4 -0.2 -6.8 -1.2 -12 -2 -49.5 -8.4 -96.2 -44 -119 -90.7 -17.6 -36.2 -21.4 -82.7 -9.8 -121.2 7.1 -23.4 22.6 -49.4 40.7 -67.8 25.2 -25.9 50.9 -40.1 84.3 -46.9 9.8 -2 14.2 -2.3 32.8 -2.2 18.2 0 23.1 0.4 31.6 2.2 52 11.2 93.1 43.6 116.4 91.7 10.9 22.6 14.9 38.7 15.7 63.5 0.6 19.4 -0.7 32 -5.2 49.1 -13.7 53 -53.6 97.5 -103.5 115.6 -16.7 6.1 -30 8.4 -51 8.8 -10.2 0.2 -19.6 0.2 -21 -0.1z"/>
 </g>
 <g fill="#f4f0e7">
  <path d="M495 908.1 c-26.6 -8.6 -44.1 -36.2 -51.9 -82.3 -4.9 -28.3 -4.7 -57.9 0.4 -88.3 3.6 -21.1 12.3 -50.5 15 -50.5 0.6 0 5.1 0.9 10 1.9 31.5 6.9 61.2 6.6 90.1 -0.8 l7.2 -1.8 1.2 2.6 c3.8 8.1 10.7 32.3 13.5 47.1 7.2 38.6 5.4 78.1 -5.1 112.8 -12.5 41.3 -33.8 61.3 -64.8 61.1 -6.8 0 -11.9 -0.6 -15.6 -1.8z"/>
  <path d="M281.5 835.5 c-17.1 -3.8 -29.5 -14.1 -36.2 -30 -12.3 -29 2.4 -78.4 35.2 -119.2 8.8 -11 25.3 -27.4 37.2 -37 9.4 -7.5 42.7 -30.3 44.4 -30.3 0.4 0 8.6 7.8 18.1 17.3 9.5 9.5 21 19.9 25.6 23.2 7.7 5.6 28.8 18.9 31.3 19.7 1.6 0.5 0.2 4.5 -7.4 22.3 -17.9 42.1 -36.4 71.1 -60.5 95.1 -21.6 21.5 -45.6 35.4 -67.6 39.3 -7.6 1.4 -12.6 1.3 -20.1 -0.4z"/>
  <path d="M723.5 836.1 c-32.4 -5.1 -71.6 -35 -99.6 -76.1 -8.8 -12.8 -14.2 -22.2 -21.9 -38.2 -7.7 -16.2 -17 -38.5 -17 -41.1 0 -0.7 2.1 -2.3 4.8 -3.6 2.6 -1.3 9.2 -5.2 14.7 -8.8 17.8 -11.7 32.5 -24.6 46.6 -41 l8 -9.2 9.7 5.6 c54.1 31.1 96.7 82 109.9 131.3 3 11.5 4.2 31.3 2.3 40.3 -2.8 13.6 -14.2 29.2 -25.6 35 -9.9 5 -22.3 7.2 -31.9 5.8z"/>
  <path d="M180.6 660.5 c-35.3 -7.3 -55.6 -27.9 -55.6 -56.4 0 -16.5 7.7 -31.8 23.7 -47.2 25.3 -24.3 64.1 -40.3 113.8 -46.9 10.2 -1.3 55.6 -2.5 61.8 -1.6 l4.7 0.7 0 5.9 c0 21.7 8.7 56.5 19.5 78.1 l4.4 8.7 -13.7 9.5 c-37 25.5 -70.7 40.7 -105.8 47.8 -14.1 2.8 -42.4 3.6 -52.8 1.4z"/>
  <path d="M800.9 661 c-30.6 -3.8 -64 -16.3 -95.9 -35.9 -19.3 -11.9 -35 -22.2 -35 -23.1 0 -0.4 2.5 -5.9 5.5 -12.1 10 -21 16.5 -44.1 18.6 -67.4 0.6 -6.6 1.3 -12.6 1.5 -13.2 0.4 -1.6 39.5 -1.8 55.9 -0.3 32.9 3.1 62.3 10.9 88.1 23.5 18 8.8 29.4 16.7 39.7 27.5 18.3 19.2 23.7 40.8 15.7 62.3 -6.4 17.1 -24.1 31.3 -46 36.8 -9.5 2.4 -35.9 3.4 -48.1 1.9z"/>
  <path d="M303 490.9 c-54.9 -2.4 -87.3 -11.7 -121.5 -34.7 -34.9 -23.4 -53.1 -51 -49.6 -75.2 2.4 -16.8 13.2 -31.2 29.1 -38.8 13.3 -6.3 23.4 -8.4 41.4 -8.4 15.5 0 26.1 1.4 41.1 5.2 30.1 7.8 69.1 28.5 105.5 56 l12.1 9.1 -3.6 6.2 c-10.5 18.2 -18.4 36.7 -22.4 52.3 -1.6 6.1 -6.1 27.7 -6.1 29.2 0 0.2 -2.5 0.2 -26 -0.9z"/>
  <path d="M694 489.9 c0 -1.2 -1.1 -7.8 -2.5 -14.8 -4.4 -21.7 -11.2 -39.4 -23.1 -60.3 -3.1 -5.4 -5.4 -10.2 -5.2 -10.7 0.3 -1.1 23.8 -18.3 36.8 -27.1 31.9 -21.4 64.5 -35.7 94.5 -41.6 11.5 -2.2 37.1 -2.5 47 -0.5 27.7 5.5 46 22.8 49.6 46.6 3.3 22.7 -6.5 42.5 -31.7 63.6 -11.1 9.2 -21.4 15.8 -36.8 23.4 -27.1 13.4 -56.5 20.2 -94.6 21.9 -6.9 0.4 -17.3 0.9 -23.2 1.2 -10.6 0.5 -10.8 0.5 -10.8 -1.7z"/>
  <path d="M362 381.8 c-37.2 -27.9 -67.5 -58.7 -82.4 -83.5 -8.5 -14.2 -16.7 -35.2 -20.1 -51.8 -1 -4.4 -2 -13.4 -2.2 -20 -0.5 -10.2 -0.2 -13.4 1.6 -20.5 2.5 -10.1 6.9 -17.7 13.5 -23.5 16.2 -14.3 40.3 -16.5 63.6 -5.9 14.2 6.6 24.7 14.2 40.4 29.4 28.4 27.5 49.5 61.8 63 102.1 3.6 10.9 7.9 26.9 7.4 27.4 -0.2 0.1 -4.8 2.5 -10.4 5.3 -20.4 10.1 -36.5 21.6 -54 38.4 -5.6 5.4 -10.3 9.8 -10.5 9.8 -0.2 0 -4.7 -3.2 -9.9 -7.2z"/>
  <path d="M642.5 380.9 c-16 -16.1 -34.2 -29.1 -54.9 -39 -6.8 -3.2 -12.9 -5.9 -13.5 -5.9 -1.4 0 -1.8 1.5 3.3 -13.5 14.5 -43 30 -72 53.9 -100.6 21.3 -25.5 42.1 -41.4 63.2 -48.4 10.8 -3.6 25.6 -4.5 34 -2 19.4 5.5 31.7 18.6 36.1 38.2 5.1 23.2 -6 66.1 -24.7 94.9 -14.8 22.7 -39.8 48.5 -67.9 70.1 -7.9 6 -20 14.3 -20.9 14.3 -0.4 0 -4.2 -3.6 -8.6 -8.1z"/>
  <path d="M464.9 328.1 c-3.3 -8.4 -11.1 -33.1 -13.3 -41.8 -8.4 -33 -10.4 -66.7 -6 -101.3 5.2 -42 23.1 -69.6 51.4 -79 9.2 -3.1 24.6 -2.5 34.1 1.4 8 3.2 19.4 12.2 24.9 19.6 15.2 20.3 24.2 54.5 24.2 92.5 0 19.4 -2.1 36.2 -6.8 54.9 -3.9 15.6 -12.2 41.6 -16 50.2 l-2.5 5.7 -4.2 -0.7 c-17.8 -2.7 -34.5 -4.6 -41.7 -4.6 -9 0 -25.1 1.9 -36.3 4.3 l-6.8 1.5 -1 -2.7z"/>
 </g>
</svg>