<?xml version="1.0" encoding="utf-8"?>
<!DOCTYPE svg PUBLIC "-//W3C//DTD SVG 1.0//EN" "http://www.w3.org/TR/2001/REC-SVG-20010904/DTD/svg10.dtd">
<svg version="1.0" xmlns="http://www.w3.org/2000/svg" width="1024px" height="1536px" viewBox="0 0 1024 1536" preserveAspectRatio="xMidYMid meet">
 <g fill="#484847">
  <path d="M334.5 1134.9 c-11.2 -1.3 -19.5 -3.2 -18.8 -4.2 0.3 -0.6 0.1 -0.7 -0.6 -0.3 -0.6 0.4 -2.6 0.4 -4.4 0 -2.8 -0.6 -2.9 -0.8 -1.2 -1.4 1.4 -0.5 0.6 -0.8 -2.5 -0.8 -3.2 0.1 -7.4 -1.2 -14.5 -4.4 -11.9 -5.3 -25.1 -13.2 -24.7 -14.8 0.1 -0.6 -0.2 -0.9 -0.7 -0.5 -1.5 0.9 -6.2 -2.5 -5.4 -3.9 0.3 -0.6 0.3 -0.8 -0.2 -0.4 -1 0.9 -6.7 -3.1 -6 -4.2 0.3 -0.5 0 -1.2 -0.6 -1.6 -0.8 -0.5 -0.9 -0.3 -0.4 0.7 0.8 1.2 0.6 1.2 -0.8 0 -0.9 -0.7 -1.4 -1.7 -1.1 -2.2 0.3 -0.5 -0.2 -0.9 -1.1 -0.9 -0.9 0 -1.3 -0.4 -1 -1 0.3 -0.5 0 -0.7 -0.8 -0.4 -2.2 0.8 -21.5 -21.5 -20.2 -23.5 0.3 -0.7 0.1 -1 -0.6 -0.9 -0.6 0.2 -1.4 -0.3 -1.7 -1.1 -0.3 -0.9 0 -1.1 0.8 -0.6 0.9 0.5 1.1 0.4 0.6 -0.4 -0.4 -0.6 -1.1 -0.9 -1.6 -0.6 -0.4 0.3 -2.2 -1.8 -4 -4.6 -2.5 -4.1 -2.9 -5.4 -1.8 -6.1 1 -0.8 0.9 -0.9 -0.3 -0.5 -1.2 0.4 -2.5 -1.3 -5.3 -7.1 -2 -4.2 -3.1 -7.8 -2.6 -8 1.3 -0.5 1.3 -3.2 -0.1 -3.2 -0.5 0 -0.7 0.5 -0.4 1 0.3 0.6 0.2 1 -0.3 1 -1.7 0 -8.1 -23.4 -8.2 -29.7 0 -1.3 0.5 -2.3 1 -2.3 0.6 0 1 -0.5 1 -1 0 -0.6 -0.6 -0.9 -1.2 -0.8 -0.9 0.2 -1.4 -1.8 -1.6 -7.2 -0.1 -5.2 0.1 -7 0.8 -6 0.8 1.3 1 1.3 1 -0.1 0 -0.9 -0.6 -1.9 -1.4 -2.2 -0.9 -0.4 -1.3 -1.8 -1.1 -4.4 0.2 -2.1 0.6 -7.8 1 -12.7 0.8 -11.4 5.1 -28.5 10.3 -40.8 4.4 -10.6 10.6 -22.1 11.4 -21.3 0.2 0.3 0.5 -0.1 0.5 -0.9 0 -2 11.3 -17.7 12.4 -17.1 0.5 0.4 0.7 0 0.4 -0.7 -0.7 -1.7 7.4 -11 8.7 -10.2 0.6 0.4 0.8 0.3 0.5 -0.3 -0.8 -1.3 6.7 -8.6 7.8 -7.6 0.4 0.5 0.5 0.3 0.2 -0.3 -0.8 -1.4 2.6 -4.7 3.8 -3.7 0.4 0.5 0.5 0.3 0.2 -0.4 -0.4 -0.6 1.4 -2.8 4.2 -5.2 4.9 -4.1 6.8 -5.1 5.5 -2.8 -0.5 0.8 -0.3 0.8 0.9 -0.2 0.9 -0.7 1.5 -1.7 1.2 -2.1 -0.7 -1.2 13.3 -11.3 14.5 -10.5 0.6 0.4 0.9 0.1 0.8 -0.7 -0.2 -0.7 0.5 -1.2 1.5 -1.1 1 0 1.6 -0.2 1.3 -0.5 -0.3 -0.3 -0.2 -1 0.3 -1.6 0.7 -0.8 -3.6 -1.1 -15.2 -1.1 -17.9 -0.1 -37.8 -2.1 -35.6 -3.7 1 -0.7 0.5 -0.8 -1.4 -0.3 -3.3 0.7 -14.9 -1.4 -14.2 -2.5 0.3 -0.4 -0.2 -1.1 -1.1 -1.4 -0.8 -0.3 -1.2 -0.2 -0.9 0.4 0.9 1.4 0.2 1.3 -7.6 -1 -3.8 -1.2 -6.9 -2.5 -6.9 -3.1 0 -0.6 -0.4 -0.8 -0.8 -0.5 -0.5 0.3 -2.5 0 -4.6 -0.6 -2.6 -0.8 -3.3 -1.4 -2.4 -2.1 0.9 -0.6 0.8 -0.7 -0.5 -0.3 -2.6 0.8 -12.2 -3.4 -10.5 -4.6 0.9 -0.7 0.8 -0.8 -0.5 -0.4 -2.3 0.7 -13.8 -5 -13.4 -6.7 0.1 -0.7 -0.7 -1.1 -1.8 -1 -3.6 0.3 -27.8 -18.1 -27 -20.5 0.3 -0.7 0.1 -1.1 -0.4 -0.8 -1.3 0.8 -12.3 -11.2 -11.5 -12.5 0.4 -0.7 0.3 -0.9 -0.3 -0.6 -1.4 0.9 -3.7 -1.9 -2.7 -3.4 0.4 -0.8 0.3 -0.9 -0.4 -0.5 -2.3 1.4 -18.2 -25.8 -18.6 -31.8 0 -1.3 -0.4 -2.2 -0.7 -2 -1.6 0.9 -7.7 -26.5 -8.1 -36.1 -0.8 -20.9 1.5 -50.6 4 -52.5 0.4 -0.3 0.8 -2 1 -3.8 0.2 -3.1 2.8 -11.9 5.4 -18.4 0.5 -1.5 1.5 -2.5 2.1 -2.1 0.6 0.3 0.7 0.1 0.3 -0.6 -0.9 -1.4 0.3 -5.3 1.4 -4.6 0.5 0.3 1.2 0 1.6 -0.6 0.4 -0.8 0.3 -0.9 -0.4 -0.5 -1.7 1 -1.5 0.3 1 -4.9 1.2 -2.5 2.9 -4.5 3.7 -4.5 1.2 0 1.3 -0.2 0.4 -0.8 -0.9 -0.6 0.4 -3.4 4.7 -10.1 3.3 -5.1 6.4 -8.9 7 -8.6 0.5 0.3 0.7 0 0.4 -0.8 -0.3 -0.9 0.6 -2.4 2.2 -3.6 1.5 -1.1 2.3 -2.1 1.8 -2.1 -0.4 0 0.7 -1.6 2.6 -3.5 1.8 -1.9 3.7 -3.2 4.1 -2.9 0.5 0.3 0.6 -0.1 0.3 -0.9 -0.4 -1.2 5.9 -7.2 7.8 -7.2 0.3 0 1 -0.4 1.5 -0.9 0.5 -0.5 0.3 -0.6 -0.4 -0.2 -3 1.7 -0.9 -0.4 4.7 -4.8 3.4 -2.7 6.5 -4.4 7.1 -4 0.7 0.4 0.9 0.3 0.6 -0.3 -0.4 -0.6 1.4 -2.5 4.1 -4.1 7.3 -4.7 26.2 -13.5 29.3 -13.6 1.5 -0.1 2.5 -0.4 2.3 -0.7 -0.7 -1.2 8.3 -3.2 15.3 -3.4 4 0 7.6 -0.5 8 -0.9 0.5 -0.5 -1.7 -0.6 -4.7 -0.3 l-5.5 0.5 5.5 -1.4 c3 -0.8 10.6 -1.7 16.8 -2.1 9.2 -0.5 11.6 -0.3 12.3 0.8 0.6 1 0.9 1 0.9 0.2 0 -0.8 1.4 -1.3 3.5 -1.3 2.1 0 3.5 0.5 3.5 1.3 0 0.9 0.2 0.9 0.9 -0.1 0.6 -1 2.8 -1.2 9.4 -0.6 4.8 0.4 8.7 1 8.7 1.4 0 0.4 1.2 0.6 2.8 0.4 1.5 -0.2 1.9 -0.1 0.9 0.2 -2.5 0.8 -1.1 2.4 2.1 2.4 2.1 0 2.4 -0.2 1.2 -1 -1.3 -0.8 -1.2 -1 0.3 -1 0.9 0 1.7 0.4 1.7 0.8 0 0.4 1 0.8 2.3 0.9 4.8 0.4 8.7 1.4 8.7 2.4 0 0.6 0.5 0.7 1 0.4 0.6 -0.4 4 0.3 7.6 1.5 4.6 1.6 6.2 2.5 5.3 3.1 -0.9 0.6 -0.2 0.9 2.3 0.9 4.3 0 9 1.9 8.2 3.2 -0.3 0.5 0 0.9 0.7 0.7 3.2 -0.4 4.7 0.2 5.2 2.1 0.3 1.1 1 2 1.7 2 0.6 0 0.8 -0.5 0.5 -1.1 -0.4 -0.5 2.5 0.6 6.4 2.6 4 2 7.1 4.2 7.1 5 0 0.9 1 1.5 2.5 1.5 3.1 0 14.8 7.8 13.8 9.2 -0.3 0.7 -0.1 0.8 0.6 0.4 1.6 -1 8.4 4.2 7.5 5.6 -0.5 0.7 -0.2 0.9 0.8 0.5 1 -0.3 2.9 0.9 5.3 3.3 2.6 2.6 3.3 3.9 2.3 4.3 -0.7 0.3 0 0.6 1.6 0.6 2.3 0.1 2.6 -0.2 1.7 -1.3 -0.6 -0.7 -0.8 -2.2 -0.4 -3.1 0.4 -1.1 0.2 -1.6 -0.4 -1.2 -0.5 0.3 -1.9 -1.4 -3.1 -3.9 -2.5 -5.2 -2.7 -5.7 -0.9 -4.9 0.6 0.4 0.5 0.1 -0.4 -0.7 -1.7 -1.4 -4.4 -8.2 -2.9 -7.3 1.1 0.7 1.3 -0.6 0.4 -3 -0.5 -1.1 -0.9 -1.3 -1.4 -0.5 -1.1 1.7 -6.8 -19 -8.5 -31 -5.3 -36.3 -3.4 -69 5.6 -96.7 1.1 -3.5 2.5 -6.3 3 -6.3 0.6 0 0.7 0.5 0.3 1.2 -0.4 0.7 -0.3 0.8 0.5 0.4 0.8 -0.5 0.9 -1.2 0.2 -1.9 -0.6 -0.8 -0.4 -2.6 0.6 -5 1.2 -2.9 1.8 -3.5 2.5 -2.5 0.7 1 0.8 0.8 0.4 -0.5 -0.6 -1.8 2.3 -8.9 3.4 -8.2 0.3 0.2 0.6 -0.4 0.6 -1.3 0 -2.3 8.6 -15.2 9.6 -14.6 0.5 0.3 0.7 0.1 0.6 -0.4 -0.8 -2.9 23.1 -28 25.3 -26.6 0.7 0.4 0.9 0.3 0.6 -0.3 -0.9 -1.4 6 -6.6 7.5 -5.7 0.6 0.4 0.8 0.3 0.5 -0.3 -0.9 -1.4 1.9 -3.7 3.4 -2.7 0.7 0.4 0.9 0.3 0.5 -0.4 -0.9 -1.4 18.9 -12.6 21 -11.8 0.8 0.3 1.3 0.2 0.9 -0.3 -0.9 -1.6 15.5 -7.5 20.5 -7.4 3 0.1 3.8 -0.2 2.5 -0.7 -2.5 -0.9 3.3 -2.3 18.8 -4.5 15.3 -2.1 29.5 -2 31.4 0.3 0.8 0.9 1.2 1.1 0.8 0.5 -0.9 -1.8 4.8 -1.7 15.4 0.2 8.4 1.5 11.4 2.5 7.3 2.5 -1.2 0 -2.2 0.4 -2.2 0.9 0 1 1.1 0.9 5.9 -0.5 1.6 -0.5 2.2 -0.4 1.7 0.4 -0.4 0.7 0.4 1 2.2 1 5.8 -0.2 31.8 10.5 30.5 12.5 -0.4 0.6 0 0.8 0.9 0.4 0.9 -0.3 2.4 0.1 3.5 0.9 1 0.9 1.3 1.3 0.6 1 -0.6 -0.4 -1.5 -0.1 -1.9 0.5 -0.5 0.8 0.1 1 1.9 0.7 2.8 -0.5 11.2 4.2 11.2 6.4 0 0.6 0.6 1.3 1.4 1.6 1 0.3 1.1 0 0.5 -0.9 -1.2 -2.1 7.2 4.8 13.6 11 3 3 4.5 4.6 3.3 3.6 -2.1 -1.6 -2.1 -1.6 -1.6 0.4 0.3 1.2 1.5 2.1 3.1 2.3 3 0.3 14.6 13.3 13.5 15.2 -0.3 0.6 -0.2 0.8 0.2 0.3 1.1 -0.9 4.6 4.3 3.8 5.7 -0.3 0.6 -0.2 0.8 0.2 0.3 1.2 -1 6.8 8.1 5.9 9.5 -0.4 0.6 -0.3 0.8 0.3 0.5 1 -0.6 2.8 2.7 3.5 6.3 0.2 0.8 0.8 2 1.5 2.7 0.6 0.7 2.5 4.8 4.2 9.2 2.2 5.7 2.9 8.8 2.4 11.3 -0.3 2.3 -0.1 3.8 0.7 4.3 0.9 0.5 1.1 0.4 0.6 -0.3 -0.4 -0.7 -0.2 -1.2 0.3 -1.2 0.6 0 1.1 0.6 1.1 1.3 0 0.6 0.3 2.3 0.6 3.7 0.4 2 0.3 2.2 -0.5 1 -0.9 -1.3 -1.1 -1.3 -1.1 0.3 0 0.9 0.6 1.7 1.4 1.7 1.7 0 3.5 10.5 4.5 27.5 1 15.1 0.3 34.7 -1.1 35.6 -0.7 0.4 -0.7 0.8 0 1 0.7 0.3 0.4 4.3 -0.8 11.8 -2.7 16.3 -4 21.6 -5.2 20 -0.6 -0.9 -0.7 -0.6 -0.3 1.1 1.1 4.8 -10 35.1 -13.5 37 -1.3 0.7 -2 0.6 -2.3 -0.3 -0.3 -0.7 -0.6 -0.5 -0.6 0.6 -0.2 3.1 4 1.8 9.1 -2.9 2.6 -2.5 5.3 -4.2 5.8 -3.9 0.6 0.4 0.9 0.2 0.8 -0.3 -0.4 -1.5 9 -8.4 10.4 -7.6 0.6 0.4 0.8 0.3 0.5 -0.3 -1.2 -1.8 23.5 -16.6 26 -15.6 0.7 0.2 2 -0.1 3 -0.7 1.6 -0.9 1.5 -1 -0.7 -0.6 -1.4 0.3 1.1 -1.2 5.5 -3.4 5.8 -2.9 8.8 -3.8 10.8 -3.4 1.6 0.3 2.7 0.1 2.7 -0.5 0 -0.6 -0.8 -0.8 -1.7 -0.5 -1.6 0.5 -1.6 0.5 -0.1 -0.5 2.1 -1.4 25.4 -8.1 27.6 -8 1.1 0.1 0.7 0.4 -0.8 0.9 -1.7 0.6 -0.7 0.7 3 0.4 6.3 -0.6 7.9 -1.4 2.9 -1.5 l-3.4 -0.1 4 -1 c2.2 -0.5 9.1 -1 15.2 -1.1 6.2 -0.1 11.3 -0.5 11.3 -0.8 0 -0.3 3.9 -0.3 8.8 -0.1 5.9 0.3 9 0.9 9.5 1.8 0.4 0.8 2 1.3 3.5 1.3 l2.7 -0.1 -3 -0.8 c-2.9 -0.7 -2.8 -0.8 1.1 -0.9 3.3 -0.1 4.5 0.4 5.7 2.1 1.2 1.9 1.8 2.1 2.8 1 1.1 -1 1 -1.2 -0.6 -1.2 -1 0 -1.6 -0.3 -1.3 -0.6 0.3 -0.3 2.3 -0.2 4.3 0.2 2.7 0.5 3.3 0.9 2.3 1.6 -0.9 0.7 -0.4 0.8 1.5 0.5 3 -0.5 9.9 1.2 9.3 2.2 -0.2 0.3 0.9 0.6 2.5 0.7 3.7 0.1 11 3.4 10.3 4.5 -0.3 0.5 0.6 0.9 2 0.9 3.4 0 7.8 1.8 7.1 2.9 -0.3 0.5 0 1.3 0.6 1.7 0.8 0.4 0.9 0.3 0.5 -0.4 -1 -1.6 -0.1 -1.5 3.5 0.3 1.7 1 2.7 2 2.3 2.7 -0.5 0.7 -0.2 0.9 0.9 0.5 1.6 -0.6 3.4 0.8 2 1.6 -0.5 0.2 -0.2 0.2 0.6 0 0.8 -0.2 3.1 0.8 5.3 2.3 4.1 2.9 5.1 4.1 1.8 2.4 -1.6 -0.9 -2 -0.8 -2 0.5 0 1 1 1.5 3.3 1.5 3.6 0 5.8 1.5 5.1 3.5 -0.3 0.7 -0.1 1.6 0.5 2 0.7 0.3 0.8 0 0.5 -0.9 -0.3 -0.9 -0.2 -1.6 0.3 -1.6 1.6 0 4.4 3.6 3.6 4.5 -0.5 0.4 -0.3 0.5 0.3 0.2 1.4 -0.8 3.7 1.7 2.6 2.8 -0.4 0.5 -0.2 0.5 0.4 0.2 1.3 -0.8 8.7 6.6 7.7 7.7 -0.5 0.4 -0.2 0.6 0.5 0.4 0.8 -0.1 2.1 0.8 3 2.2 1.6 2.3 1.6 2.4 -0.1 1.7 -1.2 -0.4 -1.6 -0.3 -1.2 0.4 0.4 0.6 1.3 0.8 2.1 0.5 1.4 -0.5 4.6 3.2 3.8 4.5 -0.2 0.4 0.1 1.1 0.7 1.5 0.8 0.5 0.9 0.3 0.4 -0.6 -0.6 -0.9 -0.4 -1.1 0.4 -0.6 0.7 0.5 1 1.4 0.7 2.1 -0.2 0.7 0.4 1.5 1.6 1.8 1.4 0.4 1.9 1.1 1.4 2.2 -0.3 0.9 -0.2 1.3 0.4 1 1.1 -0.7 2.9 2.5 2.3 4.3 -0.3 0.7 0 1.1 0.7 1 1.4 -0.4 11.2 17.2 10.5 18.9 -0.2 0.6 0.1 1.3 0.6 1.5 1.2 0.4 7.3 18.2 9.3 27.1 2.2 10 3.9 23.6 3.3 27.4 -0.3 1.9 -0.2 4.6 0.3 5.9 0.6 1.4 0.6 2.3 0.2 2 -0.4 -0.2 -0.8 5.9 -0.8 13.6 0 9.5 -0.3 14.3 -1.1 14.5 -0.6 0.2 -0.9 1.2 -0.6 2.2 1.1 4.4 -9.5 36 -11.7 34.6 -0.3 -0.2 -0.6 0.6 -0.6 1.8 0.1 1.2 -0.4 2.1 -1.1 2 -0.7 -0.2 -1 0.3 -0.7 1 0.6 1.5 -7.7 15.2 -9.3 15.2 -0.6 0 -1.5 0.4 -2 0.9 -0.5 0.5 -0.3 0.6 0.5 0.2 1.9 -1.1 1.4 0.2 -1.4 4 -1.4 1.8 -3.1 3.1 -3.7 2.7 -0.5 -0.3 -0.7 -0.1 -0.3 0.5 0.7 1.2 -4.2 7.4 -5.4 6.7 -0.4 -0.3 -1.3 0.2 -2 1 -0.7 0.8 -0.9 1.5 -0.4 1.5 2.2 0 -13.9 14.1 -23.8 20.8 -4.9 3.4 -6.4 3.9 -5.2 2 0.4 -0.7 0.3 -0.8 -0.5 -0.4 -0.6 0.4 -0.9 1.1 -0.7 1.5 0.3 0.4 -1.2 1.7 -3.2 2.8 -2 1.2 -5.4 3.1 -7.6 4.3 -2.1 1.1 -4.5 1.9 -5.3 1.6 -0.8 -0.3 -1.2 -0.2 -0.9 0.3 0.8 1.2 -7 4.5 -8.5 3.6 -0.7 -0.5 -1 -0.4 -0.6 0.2 1.2 1.9 -30.5 11 -34.5 10 -1 -0.3 -1.6 -0.2 -1.3 0.3 1 1.6 -20.4 3.5 -38.7 3.4 l-18.7 0 2.9 2.1 c1.7 1.2 2.6 2.6 2.2 3 -0.4 0.5 -0.2 0.5 0.5 0.1 1.1 -0.6 9.3 3.9 9.3 5.1 0 0.2 -0.5 0.1 -1.2 -0.3 -0.7 -0.4 -0.8 -0.3 -0.4 0.5 0.4 0.6 1.3 1 2 0.9 2.4 -0.6 18 12.8 16.9 14.5 -0.4 0.6 -0.1 0.7 0.6 0.2 1.4 -0.8 5.4 2.9 4.3 4.1 -0.4 0.4 -0.2 0.4 0.4 0.1 1.4 -0.8 4.7 2.6 3.7 3.8 -0.5 0.4 -0.3 0.5 0.3 0.2 2.1 -1.2 20.7 21.3 19.7 23.9 -0.3 0.8 0.1 1.4 1.1 1.4 1.9 0 5.8 5.9 4.9 7.3 -0.3 0.6 -0.1 0.7 0.4 0.4 1.4 -0.9 2.4 1.7 1.7 4.1 -0.5 1.3 -0.4 1.4 0.4 0.3 0.8 -1.1 1.2 -1 2.1 0.7 1 1.8 0.9 2.1 -0.5 1.5 -1.4 -0.5 -1.4 -0.3 -0.3 1.5 0.7 1.2 1.6 1.7 1.9 1.2 0.3 -0.6 1.6 1.1 2.8 3.6 1.2 2.5 2 5 1.6 5.5 -0.8 1.3 1.6 7 2.6 6.4 1.2 -0.7 3.3 6.2 2.4 7.6 -0.4 0.7 -0.3 0.9 0.3 0.6 2.3 -1.4 7 21.7 7.5 36.8 0.2 7.6 0 9.9 -0.9 9.8 -1.7 -0.4 -1.7 1.4 -0.1 1.9 1.4 0.5 1.3 7.5 -0.3 17.8 -1.6 11.1 -2 12.4 -3.1 10.9 -0.7 -1 -0.8 -0.4 -0.4 1.9 0.6 3.3 -3.9 17.2 -8.4 26.3 -4.3 8.5 -12.2 20.9 -13 20.4 -0.4 -0.3 -1.4 0.3 -2.1 1.3 -1.3 1.5 -1.2 1.6 0.4 0.3 0.9 -0.7 1.7 -1 1.7 -0.6 0 2.7 -21.7 25.8 -23.3 24.8 -0.6 -0.3 -0.7 -0.2 -0.4 0.4 0.9 1.5 -3.9 5.7 -5.5 4.7 -0.7 -0.4 -1 -0.4 -0.6 0.1 1.1 1.2 -1.1 3.5 -2.7 2.9 -0.7 -0.3 -1.6 0 -2.1 0.7 -0.5 0.8 -0.3 1 0.6 0.4 3.7 -2.3 -0.8 2 -5.3 5 -3.7 2.5 -5.3 3.1 -5.9 2.2 -0.8 -1.2 -0.9 -1 -1.2 1.6 -0.1 0.6 -0.9 1.1 -1.9 1.1 -0.9 -0.1 -1.5 0.2 -1.2 0.6 0.7 1.1 -2.4 2.2 -3.7 1.3 -0.7 -0.3 -0.8 -0.1 -0.4 0.5 0.8 1.3 -8.1 5.5 -9.7 4.5 -0.5 -0.3 -0.7 -0.1 -0.3 0.5 0.9 1.6 -10.1 5.5 -15.1 5.4 -3.3 -0.1 -4.3 0.2 -4.3 1.4 0 1.2 -0.7 1.5 -2.5 1.2 -1.3 -0.3 -2.2 -0.1 -1.9 0.3 0.3 0.5 0.2 0.9 -0.3 0.9 -0.4 0 -4.6 0.6 -9.3 1.4 -4.7 0.8 -11.9 1.7 -16 2 -9.2 0.8 -27.7 -0.4 -25.8 -1.5 0.7 -0.5 -0.8 -0.6 -3.7 -0.3 -3.9 0.4 -4.7 0.3 -3.5 -0.6 1.2 -0.9 0.9 -1 -1.3 -0.5 -3.2 0.7 -17.4 -2.4 -15.8 -3.5 0.6 -0.3 -0.4 -0.6 -2.2 -0.6 -3.9 0 -12.9 -3.3 -12.1 -4.5 0.3 -0.5 -0.1 -0.6 -0.9 -0.3 -1.9 0.7 -16 -6.4 -15.2 -7.6 0.3 -0.5 0 -0.7 -0.7 -0.5 -0.8 0.3 -2.2 -0.2 -3.3 -1 -1.9 -1.6 -1.9 -1.6 0.2 -0.5 1.8 0.8 2.2 0.8 1.7 -0.4 -0.3 -0.8 -1.6 -1.3 -2.9 -1.1 -2.9 0.3 -6.8 -2.2 -5.9 -3.7 0.4 -0.7 0.2 -0.8 -0.4 -0.4 -0.6 0.4 -2.3 -0.1 -3.7 -1 -2 -1.3 -2.3 -1.9 -1.3 -2.6 0.9 -0.5 0.6 -0.7 -0.8 -0.6 -2.6 0.4 -15.8 -10.8 -14.8 -12.4 0.4 -0.6 0.2 -0.8 -0.3 -0.5 -1.8 1.1 -19.6 -18.9 -19.1 -21.4 0.2 -0.8 -0.2 -1.3 -0.9 -1.2 -0.6 0.1 -2.8 -2.2 -4.7 -5.1 -3.8 -5.7 -4.4 -7.2 -2.4 -6 0.7 0.4 0.8 0.3 0.4 -0.5 -0.4 -0.6 -1.1 -0.9 -1.6 -0.6 -1.3 0.8 -6.1 -8.1 -5.4 -10.2 0.4 -1.3 0.3 -1.4 -0.3 -0.5 -0.7 0.9 -1.2 0.6 -2.1 -1.3 -0.7 -1.5 -0.8 -2.5 -0.2 -2.5 0.6 0 1 -0.4 1 -1 0 -0.5 -0.7 -1 -1.5 -1 -1.8 0 -5.9 -7.6 -4.9 -9.2 0.4 -0.6 0.3 -0.8 -0.3 -0.5 -2 1.3 -11.6 -25 -10.7 -29.2 0.4 -1.8 0.3 -2.2 -0.4 -1.2 -0.7 1 -1.3 0 -2.3 -3.8 -0.7 -2.8 -1.6 -5.1 -2 -5.1 -0.4 0 -1.3 2.2 -2 5 -0.7 2.7 -1.7 4.6 -2.2 4.3 -0.6 -0.3 -0.7 -0.1 -0.3 0.6 0.9 1.3 -0.2 4.8 -5.6 18.9 -2.2 5.6 -4.4 10 -4.9 9.7 -0.5 -0.4 -0.6 0.1 -0.3 0.9 1.3 3.3 -20.4 40.5 -22.8 39 -0.7 -0.4 -0.8 -0.3 -0.4 0.5 0.8 1.3 -5.1 9.4 -6.4 8.6 -0.4 -0.3 -1.4 0.3 -2.1 1.2 -1 1.2 -1 1.4 -0.1 0.9 2.2 -1.3 1.2 1 -1.6 3.7 -1.6 1.5 -3.2 2.4 -3.6 2 -0.4 -0.5 -0.6 -0.1 -0.4 0.7 0.2 0.8 -0.3 1.4 -0.9 1.5 -0.7 0 -1.3 0.5 -1.4 1 -0.1 1.8 -2.1 3.5 -3.2 2.8 -0.5 -0.3 -0.7 -0.1 -0.4 0.4 1.3 2.1 -21.3 20.3 -24.8 20 -1.1 -0.1 -2 0.4 -2 1.1 0 1.7 -10.5 7.4 -12.3 6.7 -0.7 -0.2 -1.1 -0.1 -0.8 0.4 0.7 1.1 -13.9 7.4 -17.6 7.5 -1.4 0.1 -2.4 0.4 -2.1 0.9 0.2 0.4 -0.2 0.7 -0.9 0.7 -0.7 0 -2.4 0.3 -3.8 0.6 -2 0.4 -2.2 0.3 -1 -0.5 1.3 -1 1.3 -1.1 0 -1 -0.8 0 -2.4 0.4 -3.5 0.9 -1.9 0.8 -1.9 0.9 -0.1 0.9 3.6 0.2 1.1 1 -8.2 2.6 -11 1.9 -31.8 2.6 -41.7 1.4z m38.6 -2.7 c-1.8 -0.2 -3.7 0 -4.2 0.5 -0.5 0.5 1.1 0.6 3.4 0.3 4.1 -0.4 4.1 -0.5 0.8 -0.8z m-48.1 -0.6 c-0.6 -0.9 -1.9 -1.2 -2.8 -0.8 -1.7 0.6 -1.4 0.7 3.7 2.1 0.2 0.1 -0.2 -0.5 -0.9 -1.3z m35.7 -19.5 c2.6 -0.5 8.2 -1.5 12.3 -2.1 4.1 -0.7 8 -1.6 8.5 -1.9 0.6 -0.4 3 -1.3 5.5 -2 6 -1.6 22.7 -10.2 32 -16.4 14.1 -9.4 38.8 -36.7 46.8 -51.7 16.3 -30.7 24.3 -54.8 29.3 -88.3 2.1 -14.2 4.7 -55.2 3.7 -57.9 -0.5 -1.1 -3 -2 -8 -2.8 -24.4 -4.1 -46.4 -15 -63.7 -31.5 -9.3 -8.9 -14.3 -15.1 -20.9 -26.2 l-4.8 -8 -16.5 5.7 c-29.5 10.2 -54.8 21.9 -76.8 35.5 -46.8 29 -75.7 69.8 -81.1 114.8 -2 16.7 2.1 38.7 10.5 56.5 4.5 9.5 10.6 20.1 13.6 23.7 10.2 12.1 15.2 17.4 21.3 22.4 7.6 6.2 22.6 16.3 26.6 17.9 1.4 0.6 5 2 8 3.2 3 1.1 6.4 2.5 7.5 3 3.7 1.7 18.9 5 27 5.8 11.2 1.3 13.7 1.3 19.2 0.3z m331 -1.3 c0.6 -0.5 3.8 -1.2 7 -1.5 3.2 -0.3 6 -0.9 6.3 -1.3 0.7 -1 14.2 -6 16.1 -6 0.9 0 2.2 -0.7 2.9 -1.5 0.7 -0.8 1.6 -1.5 2.1 -1.5 1.8 0 18.5 -11.3 26 -17.6 11.8 -9.8 27.6 -29.7 33 -41.5 0.8 -1.9 2.5 -5.4 3.6 -7.9 6.4 -13.7 10.1 -36.5 8.4 -51.6 -5 -46.2 -34.1 -86.9 -84.3 -118 -20.5 -12.7 -51.7 -27 -77.2 -35.4 -10.4 -3.5 -13 -4 -13.7 -2.9 -0.5 0.8 -2.5 4.2 -4.6 7.6 -17.3 29.5 -47.5 50.5 -81.4 56.9 l-9.6 1.8 -0.6 7.8 c-0.8 10.5 0.9 38.4 3.4 53.8 10.2 64.3 38.2 113 80.9 140.6 15 9.7 37.8 17.7 54.5 19.3 9 0.8 25.7 0.2 27.2 -1.1z m95.3 -29.9 c0 -1.9 -2.6 -0.8 -2.7 1.2 -0.2 1.7 0.1 1.8 1.3 0.9 0.8 -0.7 1.4 -1.6 1.4 -2.1z m10.5 -14.9 l2 -2.5 -2.1 1.8 c-1.1 0.9 -2.7 1.7 -3.5 1.7 -1.2 0 -1.2 0.2 0.1 1 0.8 0.5 1.5 0.8 1.5 0.7 0 -0.1 0.9 -1.3 2 -2.7z m-315.6 -7.8 c0.7 -1.4 0.6 -1.9 -0.3 -1.9 -0.6 0 -1.3 0.9 -1.3 1.9 -0.1 1 0 1.8 0.2 1.8 0.2 0 0.9 -0.8 1.4 -1.8z m329.1 -17.9 c0 -0.7 -0.4 -1.3 -1 -1.3 -0.5 0 -0.7 0.7 -0.4 1.5 0.4 0.8 0.1 1.5 -0.5 1.5 -0.6 0 -1.1 1 -1.1 2.3 0.1 2.2 0.1 2.2 1.5 -0.3 0.8 -1.4 1.4 -3.1 1.5 -3.7z m-319.3 0 c0.3 -0.7 -0.4 -0.9 -1.6 -0.6 -1.2 0.3 -1.8 0.9 -1.5 1.5 0.7 1.1 2.6 0.6 3.1 -0.9z m328.2 -41.5 c0 -3.1 -0.3 -3.7 -0.8 -2.4 -0.7 1.8 -0.3 6.6 0.5 6.6 0.2 0 0.4 -1.9 0.3 -4.2z m0.1 -25.3 c0 -1.4 -0.2 -2.5 -0.4 -2.5 -0.2 0 -0.6 1.1 -0.8 2.5 -0.3 1.4 -0.1 2.5 0.3 2.5 0.5 0 0.9 -1.1 0.9 -2.5z m-1.1 -6.2 c-0.1 -1.8 -0.3 -2.1 -0.6 -1 -0.3 1 -0.9 1.4 -1.6 1 -0.7 -0.4 -0.6 0.1 0.2 1 1.8 2.3 2.1 2.2 2 -1z m-290.2 -105.8 c15.6 -3.3 30 -10.3 42.3 -20.5 34.4 -28.6 45.2 -72.8 27 -110.8 -5.1 -10.7 -8.8 -15.9 -17.7 -25.3 -15.7 -16.4 -36.1 -26.8 -58.7 -29.9 -7 -1 -10.8 -1 -18 0 -49.1 6.6 -85.8 46.9 -85.8 94 0.1 35.6 20.7 67.7 53.7 83.5 15.8 7.6 26.1 10.2 40.7 10.4 5.3 0.1 12.7 -0.6 16.5 -1.4z m-216.7 -43.9 c4.7 -0.9 10.1 -1.6 12.1 -1.6 1.9 0 3.9 -0.4 4.5 -0.9 0.5 -0.4 4.7 -1.6 9.4 -2.6 4.7 -0.9 11 -2.4 14 -3.2 3 -0.8 6.6 -1.7 8 -2 1.4 -0.3 3.9 -1.1 5.5 -1.8 1.7 -0.7 6.2 -2.1 10 -3.1 18.6 -4.5 17.8 -4.2 17.1 -7.7 -0.3 -1.8 -0.9 -11 -1.3 -20.6 -0.6 -18.6 0.4 -29.2 3.9 -41.1 5.1 -17.4 14.8 -34.7 26.3 -46.8 l6.7 -7.1 -7.8 -10.2 c-45.5 -59.4 -99.4 -96.3 -152.9 -104.9 -28.9 -4.6 -63.1 4.2 -88 22.7 -43.1 32 -63.7 95.9 -46.8 145.3 8 23.5 24.9 45.4 45.9 59.6 9.3 6.2 9.4 6.3 18.9 11.1 15.2 7.8 35.6 13.7 56.1 16.3 10.7 1.3 48.5 0.4 58.4 -1.4z m467.5 0.6 c1.7 -0.6 6.4 -1.6 10.5 -2.3 4.1 -0.6 7.9 -1.6 8.4 -2.1 0.6 -0.4 2.2 -0.8 3.7 -0.8 1.5 0 3.1 -0.4 3.4 -1 0.3 -0.5 1.3 -1 2.2 -1 1.5 0 7.9 -2.6 12.5 -5.1 1 -0.5 2.6 -0.9 3.6 -0.9 1 0 3.6 -1.3 5.8 -3 2.1 -1.6 4.2 -3 4.6 -3 0.4 0 3.4 -1.8 6.7 -4 24.6 -16.4 43.2 -39.9 50.6 -63.8 8.6 -28.1 7.1 -59.7 -4.1 -87.3 -1.5 -3.5 -3.1 -7.7 -3.8 -9.4 -3.7 -9.8 -15.7 -26.9 -26 -37 -45.4 -45.1 -110.8 -46.1 -176.8 -2.7 -26.6 17.6 -54 44 -77.7 74.8 l-7 9.1 4.5 4.4 c23.9 23.2 36 59.5 32.6 97.7 -0.6 7.1 -1.4 13.5 -1.7 14.3 -0.4 1.1 3.7 2.7 16.7 6.6 28.3 8.6 55.1 14.6 78.8 17.7 6.2 0.8 49.4 -0.2 52.5 -1.2z m-324.7 -157.6 c5.5 -2.9 11.9 -5.6 13.5 -5.6 0.9 0 1.9 -0.4 2.2 -1 0.3 -0.5 2.1 -1 4 -1 1.9 0 3.7 -0.4 4 -1 0.3 -0.5 1.8 -1 3.3 -1 1.5 0 4.7 -0.8 7.2 -1.7 6.6 -2.4 37.4 -2.4 48.5 0.1 10.2 2.2 18.1 4.9 27.2 9.1 l7.3 3.4 6.7 -8.7 c10.8 -13.8 12.4 -16 20.1 -27.7 13.6 -20.6 26.7 -49.6 33.6 -74.3 3 -10.7 6.6 -29.1 6.6 -33.8 0 -1.8 0.3 -3.4 0.8 -3.4 0.4 0 0.4 -8.9 0.1 -19.7 -0.9 -27.4 -4.4 -42.6 -14.4 -62.5 -5.6 -11 -8.8 -15.8 -16.8 -25.4 -23.6 -28.4 -67 -47.3 -103.2 -45 -39.1 2.4 -78.4 25.1 -99.9 57.6 -6.4 9.7 -10.3 17.9 -14.6 30.9 -17 51.2 -2.5 121.6 37.3 181 10.1 15.1 22.2 31.1 23.5 31.1 0.2 0 1.6 -0.6 3 -1.4z m458.3 -15.7 c-0.9 -2.2 -1 -2.2 -1 -0.3 -0.1 1.1 0.2 2.4 0.6 2.7 1.2 1.2 1.4 0 0.4 -2.4z m-7.3 -20.4 c-0.6 -1.4 -1.3 -2.3 -1.6 -2.1 -0.7 0.7 0.9 4.6 1.8 4.6 0.5 0 0.4 -1.1 -0.2 -2.5z m-223.1 -57.2 c-0.4 -0.3 -0.1 -1.3 0.5 -2.2 0.8 -1 0.3 -0.8 -1.2 0.4 -1.4 1.1 -2.7 2.1 -2.9 2.2 -0.2 0.2 0.6 0.3 1.9 0.3 1.3 0 2 -0.3 1.7 -0.7z m-499 -9.8 c0 -0.8 -0.4 -1.5 -0.8 -1.5 -1.1 0 -2 1.6 -1.2 2.4 1.1 1.1 2 0.7 2 -0.9z m475.7 -15.6 c0.9 -5.7 0.2 -5.9 -1.1 -0.4 -0.6 2.5 -0.7 4.5 -0.3 4.5 0.4 0 1 -1.9 1.4 -4.1z m-383.4 -0.5 c0 -0.2 -1.2 -0.4 -2.6 -0.4 -1.4 0 -2.3 0.4 -2 0.9 0.6 0.8 4.6 0.4 4.6 -0.5z m131.5 -159.3 c1 -1.7 -1.2 -2.1 -2.5 -0.6 -1 1.2 -1 1.5 0.3 1.5 0.9 0 1.8 -0.4 2.2 -0.9z m7.9 -7.2 c0.3 -0.3 -0.4 -0.5 -1.4 -0.6 -1.1 -0.1 -2.2 0.2 -2.5 0.8 -0.6 0.9 3 0.7 3.9 -0.2z m197.5 0.8 c-0.2 -0.1 -1.4 -1.1 -2.6 -2.1 -1.3 -1.1 -2.3 -1.6 -2.3 -1.3 0 1 3.1 3.7 4.2 3.7 0.6 0 0.9 -0.1 0.7 -0.3z m-157.2 -26.3 c-0.2 -0.2 -1.5 0 -2.8 0.6 -2.3 1 -2.3 1 -0.1 0.6 1.2 -0.2 2.2 0.1 2.3 0.7 0 0.8 0.3 0.7 0.6 -0.1 0.3 -0.7 0.3 -1.5 0 -1.8z m24.3 -6.8 c0 -1 -0.7 -1.2 -2.2 -0.8 -2.1 0.5 -2.1 0.6 -0.2 1.3 1 0.4 2 0.8 2.2 0.8 0.1 0.1 0.2 -0.5 0.2 -1.3z"/>
 </g>
 <g fill="#f25591">
  <path d="M504.5 865.9 c-19.3 -1.6 -37.9 -9.1 -54.5 -22 -17 -13.3 -28.8 -32.2 -33.6 -54.2 -2.2 -9.8 -2.2 -31.8 0 -41.4 8.7 -39.5 40.5 -69.2 81.1 -75.8 11.4 -1.9 18.6 -1.9 30.2 0 21.4 3.5 40.4 13.5 55.6 29.4 8.9 9.4 12.6 14.6 17.7 25.3 10.1 21.2 11.8 48.5 4.4 71.5 -10.9 33.4 -41.9 60.5 -75.9 66.2 -8.9 1.5 -16 1.8 -25 1z"/>
  <path d="M168 789 l-3.5 -2.9 3.8 -0.1 c3.5 0 3.7 0.2 3.7 3 0 1.7 -0.1 3 -0.3 3 -0.1 0 -1.8 -1.3 -3.7 -3z"/>
  <path d="M440.8 656 l-2.8 -3.5 2.6 -0.3 c3.3 -0.4 3.6 -0.1 3.2 3.9 l-0.3 3.4 -2.7 -3.5z"/>
 </g>
 <g fill="#facdd2">
  <path d="M338.5 1114.8 c-8.1 -0.8 -23.3 -4.1 -27 -5.8 -1.1 -0.5 -4.5 -1.9 -7.5 -3 -3 -1.2 -6.6 -2.6 -8 -3.2 -4 -1.6 -19 -11.6 -26.5 -17.8 -9.9 -8.1 -23 -23.3 -21.8 -25.3 0.3 -0.5 0.1 -0.7 -0.5 -0.3 -2.9 1.8 -21.8 -37.9 -19.7 -41.4 0.3 -0.5 0.1 -1.1 -0.4 -1.4 -3.2 -2 -4.7 -33.8 -2.2 -47.6 3.1 -17.1 11.7 -38 22.2 -53.5 26 -38.3 69.4 -66.8 137.6 -90.5 l19.1 -6.6 1.7 3.5 c7.3 15.3 25.4 35.6 40.7 45.5 14.7 9.5 26.4 14.3 44.6 18 l10.7 2.1 0.3 8 c0.8 18.3 -2.7 55.6 -7 75.4 -5.6 26.1 -12.5 44.6 -26 70.1 -8 15 -32.7 42.3 -46.8 51.7 -9.3 6.2 -26 14.8 -32 16.4 -2.5 0.7 -4.9 1.6 -5.5 2 -0.5 0.3 -4.4 1.2 -8.5 1.9 -4.1 0.6 -9.7 1.6 -12.3 2.1 -5.7 1.1 -14.1 1 -25.2 -0.3z"/>
  <path d="M663.2 1115.3 c-2.9 -0.2 -5 -0.8 -4.8 -1.2 0.3 -0.5 -0.5 -0.6 -1.8 -0.4 -3.6 0.7 -21.6 -4.3 -32.3 -9 -50.4 -22.2 -85.7 -75.2 -97.8 -147.1 -2.6 -15.3 -4.9 -49.2 -4.1 -59.6 0.2 -3.6 0.5 -7.4 0.5 -8.5 0.1 -1.8 1.3 -2.3 9.9 -3.9 17.9 -3.4 35 -10.7 49.3 -21.2 13.3 -9.8 27.9 -26.8 35.4 -41.1 1.5 -2.9 2.8 -5.3 2.9 -5.3 0.1 0 8 2.6 17.6 5.9 99.1 33.3 155.5 87.3 162.2 155 1.8 17.9 -1.8 41.6 -8.5 56.1 -1.1 2.5 -2.8 6 -3.6 7.9 -5.4 11.8 -21.2 31.7 -33 41.5 -7.5 6.3 -24.2 17.6 -26 17.6 -0.5 0 -1.4 0.7 -2.1 1.5 -0.7 0.8 -2 1.5 -2.9 1.5 -1.9 0 -15.4 5 -16.1 6 -0.3 0.4 -3.1 1 -6.3 1.3 -3.2 0.3 -6.4 1 -7 1.5 -1.3 1 -23.2 2 -31.5 1.5z"/>
  <path d="M250.6 822 c-20.5 -2.6 -40.9 -8.5 -56.1 -16.3 -9.2 -4.7 -9.6 -4.9 -17 -9.9 -21.7 -14.5 -36.9 -33.1 -46.1 -56.2 -5.7 -14.4 -9.1 -37.4 -7.9 -53.6 3.9 -50.3 30.6 -93.1 70.5 -113 39.8 -19.9 83 -17.8 130.4 6.3 36.3 18.4 68.9 47.1 100.4 88.5 l9 11.8 -7.9 8.1 c-8.7 9.1 -14.6 17.7 -20.4 29.8 -6.2 13 -8.6 20.6 -10.5 33.7 -1.6 10.5 -0.8 34.8 1.4 42.6 1.4 5.1 1.4 5.3 -0.8 6.8 -1.3 0.8 -5.4 2.1 -9.2 2.9 -8.3 1.7 -17.5 4.4 -18.9 5.5 -0.5 0.4 -2.3 1 -4 1.3 -1.6 0.2 -5.5 1.2 -8.5 2 -3 0.8 -9.3 2.3 -14 3.2 -4.7 1 -8.9 2.2 -9.4 2.6 -0.6 0.5 -2.8 0.9 -5 1 -2.3 0 -7.5 0.7 -11.6 1.5 -8.9 1.7 -53.8 2.7 -64.4 1.4z"/>
  <path d="M724 822.4 c-13.3 -1.8 -30.9 -5 -45 -8.5 -16 -3.8 -49.8 -13.6 -51.2 -14.8 -0.3 -0.3 0 -3.7 0.7 -7.6 5.8 -31.1 -0.4 -63.5 -17.1 -88.6 -2.5 -3.9 -8.2 -10.8 -12.6 -15.5 l-8.1 -8.4 8.6 -11.3 c56.3 -74 124.7 -113.4 187 -107.6 41.6 3.9 73.9 25.1 96.2 63.4 1.6 2.8 3.5 6.4 4.1 8 0.7 1.7 2.3 5.9 3.8 9.4 6.6 16.4 9.6 32.5 9.6 52.1 0 16.1 -1.7 28.6 -5.5 41.2 -7.4 23.9 -26 47.4 -50.6 63.8 -3.3 2.2 -6.3 4 -6.7 4 -0.4 0 -2.5 1.4 -4.6 3 -2.2 1.7 -4.8 3 -5.8 3 -1 0 -2.6 0.4 -3.6 0.9 -4.6 2.5 -11 5.1 -12.5 5.1 -0.9 0 -1.9 0.5 -2.2 1 -0.3 0.6 -1.9 1 -3.4 1 -1.5 0 -3.1 0.4 -3.7 0.8 -0.5 0.5 -4.3 1.5 -8.4 2.1 -4.1 0.7 -8.8 1.8 -10.5 2.3 -3.1 1 -52.1 2 -58.5 1.2z"/>
  <path d="M445.9 662.1 c-21.4 -27.3 -34.2 -47.9 -44.6 -72.1 -14.1 -32.4 -20.3 -61.1 -20.3 -93.7 0 -20.6 1.9 -34.2 7 -49.4 9.6 -29.1 25.3 -49.7 50.5 -66.4 44.2 -29.3 99.9 -29.9 144.8 -1.5 20.6 13.2 34.4 28.5 45.5 50.6 11.5 22.8 15.9 47.4 14.1 78.9 -1.7 31.4 -9.7 60.2 -25.4 92 -7.6 15.3 -17.8 32.2 -26 43 -3.9 5.1 -16.7 21.8 -17.5 22.8 -0.4 0.4 -4.9 -1.3 -10.1 -3.7 -19.5 -9.2 -31.6 -12 -52.4 -11.9 -11.3 0 -16.1 0.4 -19.5 1.6 -2.5 0.9 -5.7 1.7 -7.2 1.7 -1.5 0 -3 0.5 -3.3 1 -0.3 0.6 -2.1 1 -4 1 -1.9 0 -3.7 0.5 -4 1 -0.3 0.6 -1.3 1 -2.2 1 -0.9 0 -3.7 0.9 -6.2 2.1 -4.7 2.1 -6 2.8 -11.6 5.9 l-3.2 1.8 -4.4 -5.7z"/>
 </g>
</svg>