<?xml version="1.0" encoding="utf-8"?>
<!DOCTYPE svg PUBLIC "-//W3C//DTD SVG 1.0//EN" "http://www.w3.org/TR/2001/REC-SVG-20010904/DTD/svg10.dtd">
<svg version="1.0" xmlns="http://www.w3.org/2000/svg" width="1024px" height="1024px" viewBox="0 0 1024 1024" preserveAspectRatio="xMidYMid meet">
 <g fill="#2a2928">
  <path d="M504.7 913.6 c-8.3 -3 -20.3 -14.7 -32 -31 -15 -20.8 -26.8 -46.8 -32.8 -72.4 -2.2 -9.4 -2.5 -12.6 -0.9 -10.2 0.6 0.9 1 1 1 0.3 0 -0.7 -0.6 -1.6 -1.4 -2 -0.8 -0.4 -1.6 -2.3 -1.8 -4.2 l-0.3 -3.4 -5.1 6.9 c-8.6 11.5 -17.5 20.7 -18.6 19.2 -0.8 -1 -0.9 -0.9 -0.5 0.4 0.6 1.7 -2.8 5.6 -3.5 4.1 -0.3 -0.4 -0.4 -0.3 -0.2 0.3 0.5 2.5 -21.7 20.1 -23.7 18.8 -0.8 -0.4 -0.9 -0.3 -0.5 0.4 0.9 1.5 -9.7 8.4 -11.7 7.6 -0.8 -0.3 -1.8 0 -2.3 0.7 -0.5 0.9 -0.2 1 1.2 0.5 3.8 -1.4 -0.1 1.2 -7.6 5.3 -11 5.9 -22.7 10.3 -25.3 9.6 -1.6 -0.5 -1.8 -0.4 -0.8 0.3 1 0.7 -0.7 1.4 -6 2.7 -12.7 2.8 -20.4 0.3 -24.3 -8 -1 -1.9 -1.4 -4 -1 -4.7 0.4 -0.6 0.3 -0.8 -0.4 -0.4 -1.2 0.7 -4.6 -9.9 -3.8 -12 0.3 -0.7 0.1 -1.4 -0.4 -1.6 -0.5 -0.2 -1.9 -5.7 -3.1 -12.3 -1.9 -9.8 -2.3 -15.6 -2.3 -32 0 -11.9 0.5 -23 1.3 -27.5 1.9 -11 6 -26.8 8.2 -31.9 1.1 -2.4 1.8 -4.6 1.6 -4.8 -0.2 -0.2 -2.3 0.7 -4.7 2.1 -2.4 1.3 -5 2.2 -5.8 1.8 -0.9 -0.3 -1.3 -0.1 -0.9 0.5 1 1.6 -17.4 8.7 -33.3 12.8 -16.9 4.4 -40.9 6.3 -58 4.6 -14.2 -1.4 -22.2 -3 -21.5 -4.2 0.3 -0.5 -0.1 -0.6 -1 -0.3 -2.4 0.9 -7.3 -4.3 -8.6 -8.9 -2.9 -11 6.6 -46.3 18.3 -67.7 8.6 -15.7 23.8 -35.8 26 -34.4 0.7 0.4 0.8 0.2 0.4 -0.4 -0.4 -0.7 2.2 -3.9 6.4 -7.9 3.8 -3.6 7 -6.9 7 -7.2 0 -0.3 -8.2 -0.6 -18.3 -0.6 -24.6 -0.1 -40.5 -2.6 -61.2 -9.6 -16.3 -5.6 -37.3 -16.7 -35.9 -19.1 0.5 -0.7 0.2 -0.9 -0.8 -0.5 -2.1 0.7 -8.5 -5.4 -10.4 -9.9 -0.8 -1.8 -1.4 -4.8 -1.4 -6.6 0 -4.3 5.4 -15.3 12.1 -24.8 6.5 -9.1 23.3 -26.5 24.9 -25.5 0.6 0.3 0.9 0.1 0.8 -0.5 -0.5 -1.8 17.5 -14.3 29.5 -20.5 5.9 -3.1 15.3 -7.4 20.9 -9.5 9.4 -3.5 13.3 -6 9.4 -6 -3.2 0 -23.1 -10.2 -34 -17.5 -24.7 -16.4 -43.7 -36.5 -54.3 -57.2 -3.3 -6.5 -4.8 -10.7 -5.1 -14.6 -0.4 -5 -0.2 -5.7 2.9 -9.2 1.9 -2.1 5.7 -5.3 8.6 -7.2 5.5 -3.5 6.9 -4 5.7 -2.1 -0.4 0.7 -0.3 0.8 0.5 0.4 0.6 -0.4 0.9 -1.1 0.6 -1.6 -0.7 -1.1 14.8 -9.1 24.4 -12.7 5.1 -1.9 6.6 -2.1 7.2 -1.1 0.7 1 1.1 1 2.1 -0.1 1 -1 1 -1.2 0.1 -0.7 -0.7 0.4 -1.3 0.3 -1.3 -0.2 0 -1.1 0.8 -1.3 15 -4.7 18.7 -4.3 47.9 -6 47.2 -2.7 -0.2 1 1.3 1.3 5.7 1.1 3.3 -0.1 6.4 -0.5 7 -0.8 0.5 -0.3 -2 -4 -5.5 -8.1 -27.7 -32.1 -43.4 -72.1 -42.5 -108.2 0.1 -4.5 0.6 -6.3 2.6 -8.7 1.7 -2 3.1 -2.8 4.2 -2.4 1 0.4 1.4 0.2 1 -0.4 -0.4 -0.6 0.3 -1.3 1.6 -1.7 3.2 -0.8 4.4 -0.7 2.8 0.3 -1 0.6 -1 1 -0.1 1.6 0.7 0.4 1.3 -0.1 1.7 -1.3 0.4 -1.6 1.6 -2.1 6.6 -2.6 9.2 -1 25.5 -1.4 31.5 -0.9 l5.3 0.5 -1.8 2.2 c-1.8 2.1 -1.8 2.1 0.3 0.3 1.3 -1.1 3.6 -1.7 6.5 -1.6 4.3 0.1 11.6 1.6 9.1 1.8 -1.8 0.1 -0.5 2.1 1.4 2.1 0.8 0 1.2 -0.4 0.9 -1 -0.3 -0.5 0.3 -1 1.4 -1 1.1 0 2.3 0.5 2.6 1 0.3 0.6 1.8 1 3.3 1 4.4 0 21.7 6.1 34.5 12 1.5 0.7 2.7 2 2.7 2.8 0 0.8 0.6 1.2 1.4 0.9 0.8 -0.3 4.3 1.2 7.8 3.3 3.5 2.1 6.4 3.7 6.6 3.5 0.2 -0.2 -0.3 -1.6 -1.1 -3.2 -1.9 -3.6 -3.2 -9.7 -2 -9 0.5 0.4 1 -0.1 1 -0.9 0 -0.8 -0.6 -1.3 -1.4 -1 -0.7 0.3 -1.3 0.4 -1.3 0.2 0 -0.1 -0.9 -4.4 -2 -9.4 -3.2 -15 -4.4 -33.3 -3.1 -46.9 1.3 -13.6 4.9 -32.3 6.3 -32.3 0.5 0 0.6 -0.5 0.3 -1 -0.8 -1.3 1.8 -9.3 5.5 -17.6 3.2 -7 8.2 -11.8 11.7 -11.1 1.3 0.2 2.3 0 2.3 -0.5 0 -0.6 1.8 -0.7 4.3 -0.3 7 1.1 19.7 4.8 19.7 5.7 0 0.4 0.9 0.8 2 0.8 2.8 0 15 6.2 14.3 7.3 -0.3 0.4 0.1 0.7 0.8 0.6 0.8 -0.2 2.8 0.5 4.6 1.4 2.3 1.2 3.1 2.2 2.7 3.5 -0.5 1.4 -0.4 1.4 0.4 0.3 0.9 -1.2 2 -0.8 6.7 2.5 3.2 2.1 6.5 4.9 7.5 6.1 1 1.3 2.1 2.3 2.6 2.3 1.4 0 6.4 5.3 6.4 6.8 0 0.8 0.6 1.2 1.4 0.9 1.7 -0.7 6.6 4.3 6.6 6.6 0 0.9 0.7 1.7 1.5 1.7 1.7 0 6.4 4.8 6.5 6.5 0 0.6 0.9 1.6 1.9 2.2 1.1 0.7 3.4 3.3 5.2 5.9 1.8 2.6 2.7 4.4 2.1 4 -0.8 -0.5 -1.2 0.3 -1.2 2.2 0 2.5 0.4 2.9 2.7 2.8 2.2 -0.1 3 0.7 4.7 4.1 2.9 5.9 4.6 5.5 4.6 -0.9 0 -2.9 0.4 -4.8 0.8 -4.1 0.4 0.7 0.8 -0.4 0.8 -2.5 0.1 -5.1 2.4 -15.3 3.3 -14.7 0.5 0.2 0.6 -0.6 0.4 -1.8 -0.5 -2.7 6.5 -22.8 11.6 -33.4 12.9 -26.3 30.2 -47.6 43.8 -54 5.1 -2.4 10.3 -3 10.3 -1.2 0 0.5 0.4 0.8 0.9 0.5 1.6 -1 4.1 0.6 4.1 2.6 0 1 0.5 1.6 1 1.3 0.6 -0.4 0.7 -1.1 0.4 -1.7 -0.4 -0.7 -0.2 -0.8 0.5 -0.4 0.6 0.4 0.8 1.2 0.5 1.8 -0.5 0.8 -0.1 0.9 1 0.5 1.2 -0.5 3.8 1.4 9.4 6.7 6.9 6.6 17.3 19.2 12.9 15.7 -1.1 -0.9 -1.7 -1 -1.7 -0.2 0 0.6 1.1 1.6 2.4 2.1 5.6 2.1 23.5 40.1 22 46.9 -0.4 1.9 -0.3 2.2 0.4 1.2 0.8 -1.1 1.3 -0.5 2.1 2.5 2.1 7.3 5 22.9 5.6 29.9 0.9 9.6 1.1 9.9 3.5 7.5 1.1 -1.1 2.5 -1.8 3 -1.5 0.6 0.4 1 0.1 1 -0.5 0 -0.7 -0.7 -1 -1.5 -0.6 -0.8 0.3 -1.5 0.4 -1.5 0.3 0 -1 13.6 -18.7 19 -24.7 8.7 -9.8 22.8 -22.2 24.2 -21.4 0.6 0.4 0.8 0.3 0.5 -0.3 -1.6 -2.6 36.3 -25.3 39.9 -23.9 0.8 0.3 1.3 0.2 1 -0.3 -0.7 -1 9.3 -3.9 16.1 -4.8 5.5 -0.6 13 1.8 11.7 3.8 -0.4 0.7 -0.3 0.9 0.3 0.6 3.3 -2 11.8 16.1 10.8 22.8 -0.4 2.2 -0.3 2.5 0.3 1.1 0.6 -1.5 1.2 -0.5 2.5 4.5 7 26.9 6.3 59.8 -1.8 88.2 -1.5 5 -3.3 10.3 -4.1 11.8 -2.7 5.4 -1.5 5.2 8.7 -1.1 4.4 -2.8 8.5 -4.8 9.1 -4.4 0.6 0.4 0.8 0.3 0.5 -0.3 -1 -1.5 20.8 -10.6 23.6 -9.8 1.6 0.5 1.8 0.4 0.8 -0.3 -1 -0.7 0.1 -1.4 4.3 -2.6 3.1 -0.9 6.2 -1.4 6.8 -1 0.6 0.4 0.8 0.3 0.5 -0.3 -0.7 -1.1 10.2 -3.7 16 -3.8 2.4 0 4.3 -0.3 4.3 -0.7 0 -0.5 1.8 -0.8 4 -0.8 2.2 0 4 0.4 4 0.9 0 0.5 2.8 0.7 6.3 0.5 9.4 -0.4 9.8 -0.7 2.2 -1.4 -5.8 -0.5 -4.7 -0.7 6.8 -0.8 11.6 -0.2 13.7 0 13.7 1.3 0 1.1 1 1.5 3.8 1.4 l3.7 -0.2 -3.5 -0.7 c-2.7 -0.6 -2.9 -0.8 -1 -0.8 7.4 -0.3 19.1 4.7 19 8.2 0 0.6 -0.7 0.2 -1.5 -0.8 -1.4 -1.8 -1.5 -1.8 -1.5 -0.2 0 1 0.9 2 2 2.3 1.8 0.5 2 1.4 2 10.9 0 8.4 -0.3 10.6 -1.5 11 -0.9 0.4 -1.5 1.8 -1.4 3.3 l0.1 2.6 0.8 -2.5 c0.7 -2.2 0.8 -2.3 0.9 -0.4 0.1 3.1 -1 8.4 -1.8 8 -0.3 -0.2 -0.7 1.6 -0.7 3.9 -0.1 4.7 -6.2 24.8 -7.3 24.1 -0.3 -0.2 -0.7 0.6 -0.7 1.8 -0.2 3.6 -6.4 16.2 -7.3 14.8 -0.5 -0.8 -0.8 -0.3 -0.8 1.5 0 5.4 -20.9 35.2 -23.6 33.7 -0.7 -0.4 -0.9 -0.4 -0.5 0.1 1.1 1.1 -1.2 3.6 -2.6 2.8 -0.6 -0.3 -0.8 -0.2 -0.3 0.2 0.4 0.5 0.1 1.5 -0.7 2.4 -1.3 1.5 0.5 1.6 20.2 1.6 19 0 23.2 0.3 33.6 2.4 8.1 1.6 12.4 3 13.5 4.3 1.6 1.9 3.7 2.5 2.6 0.8 -0.9 -1.4 -0.7 -1.4 9.2 2.1 4.8 1.7 9.6 3.3 10.6 3.6 0.9 0.3 1.7 1.2 1.7 1.9 0 0.8 0.5 1.4 1.1 1.4 0.5 0 0.7 -0.5 0.3 -1.2 -0.4 -0.6 2.9 0.8 7.4 3.2 4.5 2.4 7.9 4.7 7.7 5 -0.3 0.4 0.8 1 2.3 1.4 1.5 0.3 4.3 1.9 6.2 3.6 2.8 2.5 3 2.9 1 2 -2.3 -1 -2.4 -1 -0.7 0.4 1.1 0.8 2.5 1.2 3.2 1 0.7 -0.3 2.3 0.9 3.6 2.7 1.3 1.8 1.8 2.9 1.1 2.5 -0.8 -0.5 -1.2 0 -1.2 1.3 0 1.5 0.6 2.1 2.1 2.1 1.9 0 2.1 0.4 1.4 3.8 -0.8 4.4 -6 14.3 -12.1 22.9 -3.3 4.6 -4.9 6.1 -6.2 5.7 -1.4 -0.5 -1.4 -0.4 -0.2 0.4 1.7 1.3 1.3 1.9 -11.4 14.9 -7.1 7.3 -9.5 9.2 -11.1 8.7 -1.6 -0.4 -1.7 -0.3 -0.5 0.5 1.4 1 0.7 1.5 -1.3 1.2 -0.5 -0.1 -0.6 0.3 -0.3 0.8 0.8 1.3 -6.2 6.4 -7.6 5.5 -0.7 -0.4 -0.8 -0.3 -0.4 0.4 1.2 2 -26.3 19 -28.6 17.6 -0.6 -0.4 -0.8 -0.3 -0.5 0.3 0.6 1 -13.5 8.2 -17 8.7 -1 0.2 -1.9 1 -2.1 1.9 -0.4 1.9 1.8 3.4 2.7 1.8 1 -1.5 21.1 5.9 21.1 7.9 0 0.5 0.8 0.8 1.8 0.7 2.2 -0.1 13.3 5.4 13.9 7.1 0.3 0.6 1.2 1.2 2 1.2 6.2 0 41.6 31.2 45.6 40.2 0.6 1.5 1.5 2.8 1.8 2.8 1 0 7.2 10 7.2 11.6 0 0.8 0.4 1.4 0.8 1.4 0.4 0 1.2 1.5 1.8 3.2 1 3.1 1 3.2 -0.4 1.3 -1.5 -1.9 -1.5 -1.9 -1.2 0.5 0.3 1.7 1 2.4 2.1 2.2 1.3 -0.2 1.6 0.6 1.6 3.8 0 4.7 -2.5 10.4 -4.2 9.4 -0.6 -0.4 -0.8 -0.3 -0.5 0.3 1 1.5 -2.7 4.5 -4.7 3.7 -0.9 -0.3 -1.6 -0.1 -1.6 0.6 0 0.6 0.6 0.8 1.3 0.5 0.6 -0.4 -0.1 0.5 -1.7 1.9 -3.8 3.2 -19.9 11.6 -29.7 15.5 -9.4 3.7 -30.2 9.1 -23.4 6.1 1.6 -0.8 1.4 -0.9 -1 -0.5 -1.6 0.2 -3.2 0.4 -3.5 0.4 -0.3 0.1 0.1 0.5 0.8 1 1.5 0.9 -1.2 1.5 -18.8 3.7 -12.3 1.5 -35.6 1.9 -36.4 0.6 -0.3 -0.4 -2 -0.6 -3.9 -0.4 l-3.5 0.4 7.9 7.6 c5.8 5.5 7.6 7.8 6.7 8.4 -0.9 0.6 -0.7 0.8 0.7 0.6 3.4 -0.5 24.8 28.3 23.1 31.1 -0.4 0.5 -0.1 1.3 0.5 1.7 0.8 0.4 0.9 0.3 0.5 -0.4 -0.4 -0.7 -0.5 -1.2 -0.2 -1.2 1.1 0 4.6 8.1 4 9.2 -0.4 0.6 -0.3 0.8 0.3 0.5 0.6 -0.4 2.5 2.7 4.6 7.6 4.7 11.1 6.7 18.2 6.1 22 -0.3 2.3 -0.2 2.7 0.4 1.3 1.3 -3.1 4.3 10.1 4.9 21.6 0.5 8.8 0.4 9.9 -1.6 12.7 -1.3 1.7 -3.5 3.7 -4.9 4.5 -3.4 1.7 -17.4 4 -20.2 3.3 -1.1 -0.3 -1.8 -0.1 -1.4 0.4 0.3 0.5 -1.9 0.9 -4.8 1 -2.9 0 -8.4 0.3 -12.1 0.5 -5 0.4 -6.7 0.2 -6.2 -0.7 0.6 -0.8 0.2 -0.8 -1.2 -0.1 -5.2 2.8 -51.2 -5.1 -49.9 -8.5 0.3 -0.7 0.1 -1.3 -0.4 -1.3 -0.6 0 -1 0.5 -1 1 0 0.6 -0.5 1 -1.1 1 -0.5 0 -0.7 -0.5 -0.3 -1.2 0.5 -0.7 0.3 -0.8 -0.5 -0.4 -1.5 0.9 -13.3 -3.3 -12.6 -4.4 0.3 -0.5 0 -1.2 -0.6 -1.6 -0.8 -0.4 -0.9 -0.3 -0.5 0.4 0.9 1.5 0.3 1.5 -2.9 0 -1.9 -0.8 -2.2 -1.4 -1.3 -2.1 0.9 -0.6 0.4 -0.7 -1.2 -0.3 -1.6 0.3 -3.7 -0.2 -5.5 -1.4 -5 -3.3 -5.6 -2.5 -2.8 4.3 4.8 11.8 7.6 26.9 7.5 40.5 -0.1 7 0.3 12.2 0.9 12.2 0.5 0 0.9 1.7 0.8 3.8 0 3 -0.2 3.3 -0.9 1.7 -0.6 -1.4 -0.9 -1.5 -0.9 -0.5 -0.1 0.9 0.4 2.1 1.1 2.8 0.7 0.7 0.8 1.2 0.2 1.2 -0.5 0 -0.9 3.9 -0.9 8.8 -0.1 9.1 -2.4 25 -3.4 23.4 -0.3 -0.6 -0.6 0.9 -0.7 3.1 -0.1 5.7 -2.2 12.9 -3.6 12.1 -0.6 -0.4 -0.8 0.1 -0.3 1.5 0.8 2.6 -4 13.6 -5.5 12.6 -0.6 -0.4 -0.9 -0.1 -0.8 0.7 0.2 0.7 -0.3 1.2 -1 1 -0.6 -0.1 -1.1 0.3 -1 1 0.4 1.6 -4.1 3.8 -7.8 3.8 -4.2 0 -9.5 -1.1 -9 -1.9 0.2 -0.3 -1.5 -0.7 -3.7 -0.7 -5.6 -0.2 -18.1 -4.7 -20.9 -7.6 -1.3 -1.3 -3 -2.4 -3.8 -2.6 -1 -0.1 -0.9 0.2 0.4 1.3 1.1 0.8 2.4 1.5 3 1.5 0.5 0 0.7 0.3 0.4 0.6 -1 1 -18.9 -8.7 -18.2 -9.8 0.4 -0.7 0.2 -0.8 -0.4 -0.4 -1.3 0.8 -3.3 -0.4 -14.9 -8.7 -4.6 -3.2 -8.2 -6.3 -8 -7 0.1 -0.7 -0.5 -1.1 -1.4 -0.9 -2.6 0.4 -27.7 -24.9 -33.7 -34 -2.6 -4 -4.2 -4.8 -4.2 -2.3 0 0.9 -0.7 1.8 -1.6 2.2 -1.2 0.4 -1.3 0.8 -0.3 1.4 1 0.6 1 1.9 0 6.6 -3.3 15.4 -9.8 34.6 -11.4 33.6 -0.6 -0.4 -0.8 0 -0.4 1 0.8 2.2 -6.2 17.9 -7.6 17 -0.6 -0.3 -0.7 -0.1 -0.3 0.6 0.9 1.4 -6.2 14.4 -7.4 13.6 -0.6 -0.3 -0.7 0 -0.4 0.8 0.7 1.9 -11.3 18 -12.8 17.1 -0.7 -0.4 -0.8 -0.3 -0.4 0.5 0.9 1.4 -1.2 4.3 -2.5 3.5 -0.5 -0.3 -0.9 -0.2 -0.8 0.3 0.3 1.3 -1.2 4.3 -2.3 4.3 -0.5 0 -0.6 -0.5 -0.2 -1.2 0.4 -0.7 0.3 -0.8 -0.5 -0.4 -0.6 0.4 -0.9 1.2 -0.5 1.7 0.7 1.2 -6.6 8 -7.8 7.3 -0.5 -0.3 -0.7 0 -0.6 0.7 0.4 1.7 -7.9 6.7 -12.2 7.3 -1.9 0.3 -5.2 0 -7.3 -0.8z m5.8 -0.6 c-0.3 -0.5 -1.8 -1 -3.3 -0.9 -2.4 0 -2.5 0.1 -0.7 0.9 2.8 1.2 4.7 1.2 4 0z m10 -28.3 c13.1 -14.4 27.9 -40.7 35 -61.9 10.7 -32.4 10.8 -56.6 0.1 -95.8 -5.2 -19.3 -4.7 -18.4 -10.9 -17.6 -2.8 0.4 -9.2 0.9 -14.2 1.3 -4.9 0.3 -9.6 1 -10.2 1.6 -1 0.7 -1.3 6.4 -1.4 22.1 0 11.6 -0.4 26.7 -0.8 33.5 -0.6 11.3 -0.9 12.5 -3 14.2 -2.9 2.4 -8.2 2.4 -11.1 0.1 -2.2 -1.8 -2.3 -2.8 -3.2 -25.3 -0.5 -12.9 -0.7 -28.2 -0.4 -34.1 l0.5 -10.6 -7.2 -0.7 c-4 -0.3 -10.7 -1.1 -15.1 -1.7 -6.3 -0.9 -8 -0.8 -8.7 0.3 -1.3 2.2 -8.8 29.6 -10.9 40.4 -4.4 21.8 -3.5 41.1 2.9 63.4 8.1 28 24.3 57.4 40.9 74.3 l6.5 6.7 2.8 -2 c1.5 -1.1 5.3 -4.7 8.4 -8.2z m-163 -27.8 c0.5 -0.5 -0.5 -0.4 -2.3 0.2 -1.7 0.6 -3.2 1.3 -3.2 1.6 0 0.7 4.3 -0.8 5.5 -1.8z m-25.4 -9 c26.9 -8.8 59 -31.9 78.9 -56.9 12.9 -16.3 19 -27.1 24.9 -44.6 2.9 -8.7 12.1 -40.2 12.1 -41.5 0 -0.6 -27.1 -11.9 -28.5 -11.9 -0.6 0 -5.5 9.6 -5.5 10.8 0 1.2 -14.3 28 -18.6 34.8 -6 9.6 -8.1 11.4 -13.2 11.4 -6.9 0 -8.2 -1.2 -8.2 -7.4 0 -4.6 0.8 -6.6 6.2 -16.2 3.3 -6 9.4 -18.1 13.4 -26.9 l7.4 -16 -5.1 -3 c-2.9 -1.6 -7.8 -4.7 -11.1 -6.7 -3.2 -2.1 -6.2 -3.8 -6.7 -3.8 -2.6 0 -30.4 33.2 -38.9 46.4 -17.8 27.6 -26.4 61.7 -23.3 91.6 1.9 17.5 7.4 42 9.4 42 0.2 0 3.3 -0.9 6.8 -2.1z m361.6 -1.6 c3 -7.3 6.4 -22.9 8 -37.1 1.5 -12.3 1.5 -16 0.5 -27 -2.1 -21.4 -8.7 -42.3 -19.3 -60.8 -6.3 -10.9 -21.3 -30.5 -32.1 -41.8 l-9.3 -9.9 -6.7 4.4 c-3.6 2.4 -8.7 5.6 -11.2 7.1 -4.1 2.5 -4.5 3 -3.7 5.1 2.3 5.9 11.7 25.8 18.6 39.1 6.6 12.9 7.5 15.2 7.5 20 0 6.2 -0.5 6.6 -8 6.6 -4.2 0 -5.2 -0.4 -7.9 -3.5 -1.6 -1.9 -5.5 -7.7 -8.5 -12.7 -5.3 -9 -18.7 -35.6 -20.3 -40.3 l-0.8 -2.3 -14.5 5.5 c-8 3 -14.6 5.6 -14.7 5.7 -0.4 0.4 11.1 38.5 14.6 48.4 8.2 23 18.9 39.3 37.7 57.2 13.5 12.9 32.4 26.4 45.2 32.3 6.9 3.1 19.7 7.6 22 7.7 0.7 0 2 -1.7 2.9 -3.7z m-472.7 -93 c0 -0.5 -1.1 -0.8 -2.5 -0.8 -1.4 0 -2.5 0.3 -2.5 0.8 0 0.4 1.1 0.7 2.5 0.7 1.4 0 2.5 -0.3 2.5 -0.7z m8 -0.3 c1.3 -0.9 1.3 -1 0 -0.9 -0.8 0 -2.4 0.4 -3.5 0.9 l-2 0.9 2 0 c1.1 0 2.7 -0.4 3.5 -0.9z m553.8 -0.7 c-1 -0.2 -2.8 -0.2 -4 0 -1.3 0.2 -0.5 0.4 1.7 0.4 2.2 0.1 3.2 -0.1 2.3 -0.4z m31.5 0 c-1.3 -0.2 -3.3 -0.2 -4.5 0 -1.3 0.2 -0.3 0.4 2.2 0.4 2.5 0 3.5 -0.2 2.3 -0.4z m-577.6 -16.8 c33.4 -4.4 58.5 -15.8 84 -38.2 6.5 -5.8 22.8 -23.4 34.7 -37.6 l4.9 -5.7 -7.4 -8.3 c-4 -4.5 -7.6 -8.6 -8 -9 -0.4 -0.5 -2.6 0.4 -5 1.9 -4.9 3 -26.2 18.3 -35.4 25.5 -8 6.2 -9.6 6.9 -14.9 6.9 -5.3 0 -7.6 -2.4 -7.6 -8.1 0 -3.2 0.9 -4.4 7.8 -11 10.3 -9.9 22.6 -19.7 33.3 -26.7 4.8 -3.1 8.8 -6 8.8 -6.4 0.2 -1.5 -12.2 -22.8 -13.2 -22.8 -1 0 -22.3 10.2 -40.2 19.2 -34.1 17.2 -62.2 47.9 -76.5 83.5 -4.1 10.3 -9 27.9 -9 32.5 0 3 0 3 12.5 4.7 9.5 1.3 18.5 1.2 31.2 -0.4z m578.8 0 c5.5 -0.8 10.4 -1.5 10.8 -1.5 2.9 -0.1 -6.9 -33.4 -13.9 -47.1 -14.3 -28.3 -33.6 -49 -60.5 -65 -11.2 -6.7 -42.9 -22.9 -44.8 -22.9 -0.7 0 -2.3 -0.7 -3.6 -1.6 -2.3 -1.5 -2.4 -1.5 -4.6 2.8 -1.2 2.4 -4.1 7.5 -6.5 11.5 -2.4 3.9 -4.4 7.5 -4.4 8 0 0.4 2.4 2.3 5.3 4.2 9.9 6.4 24.1 17.6 32.4 25.5 8.2 7.7 8.3 7.9 8.3 12.7 0 5.5 -1.5 6.9 -7.4 6.9 -5.5 0 -8 -1.4 -23.5 -12.9 -16.9 -12.5 -26.6 -19.1 -28 -19.1 -0.5 0 -4.4 3.8 -8.6 8.5 -7.1 7.7 -7.6 8.7 -6.3 10.3 32.7 38.8 51.5 55.9 72.3 66.1 24.8 12.2 56.8 17.4 83 13.6z m-639.8 -1.4 c0 -1.1 -0.5 -1.7 -0.9 -1.5 -1.1 0.7 -1 3.4 0.1 3.4 0.6 0 0.9 -0.9 0.8 -1.9z m355.8 -46.1 c29.4 -2.6 61.8 -15.3 87.5 -34.4 11.3 -8.4 38.2 -34.5 45 -43.6 9.5 -12.9 18.5 -30.5 24.4 -47.7 12.6 -37.2 14.6 -60.3 8.2 -93.8 -4.1 -20.8 -15.5 -47.9 -27.5 -65 -1.9 -2.7 -5.7 -8.2 -8.3 -12.2 -12.1 -18 -35.7 -38.3 -59.1 -50.7 -10.3 -5.6 -18.1 -8.6 -33.7 -13.3 -26.9 -8 -41.1 -9.9 -68.4 -9 -19.1 0.6 -29.9 2.3 -45.9 7.3 -10.3 3.2 -33.9 14.6 -43.6 21 -4 2.7 -9 6 -11 7.3 -6.7 4.5 -19.8 16.1 -29.7 26.4 -7.3 7.6 -10.8 12.2 -13.4 17.5 -2 4.1 -4.1 7.1 -5 7.2 -2.5 0 -14 20.1 -17.5 30.4 -0.8 2.4 -2.7 9.5 -4.1 15.7 -1.4 6.1 -3.6 15.1 -5.1 19.8 -4.4 14.9 -4.2 45 0.4 65.1 1.9 8.3 8.5 30 11.1 36.5 4 10 14.6 29.2 21.5 39 9.4 13.1 30.5 34.2 42.2 42.1 16.6 11.2 37.9 21.5 55.5 26.7 8.6 2.6 32.2 7.4 39.5 8 8.7 0.8 26.6 0.6 37 -0.3z m-303.7 -84.1 c19.7 -2.1 40.4 -8.9 66.5 -21.6 10.2 -5 15.7 -8.2 15.7 -9.2 0 -0.9 -1.3 -6.1 -2.9 -11.6 l-2.9 -10 -4.4 0.3 c-8.1 0.5 -18.3 2.4 -31.5 5.8 -13.6 3.5 -23.9 4.4 -26.1 2.2 -0.7 -0.7 -1.2 -3.3 -1.2 -5.9 0 -3.9 0.5 -5.1 2.6 -6.8 4.6 -3.6 26.7 -9.7 45.8 -12.6 5.4 -0.8 10 -1.6 10.2 -1.8 0.2 -0.1 0 -5.9 -0.3 -12.9 -0.6 -12.6 -0.6 -12.6 -3.2 -13.2 -5.7 -1.3 -51.7 -1.9 -61.6 -0.7 -35 4 -63.9 17.6 -87.6 41.1 -10.6 10.5 -22.6 26.8 -21.6 29.3 0.8 2.2 14 10.4 23.3 14.5 26.4 11.6 52.9 16 79.2 13.1z m602.7 -1 c18.9 -2.4 42.1 -10.2 56.7 -19 9.4 -5.7 9.5 -5.9 6.2 -11.6 -10.4 -18 -34.1 -39.2 -55.9 -50 -25.7 -12.7 -43.7 -15.9 -85 -15.1 -31.5 0.6 -29.4 -0.7 -31 19.5 l-0.5 7.1 6.3 0.7 c18.5 2 49.6 10.6 53 14.6 1 1.3 1.7 3.8 1.7 6.5 0 7.8 -4.1 8.2 -29.8 2.5 -20.9 -4.7 -34 -6.7 -35.1 -5.5 -0.5 0.5 -2.3 5.6 -4.1 11.3 -2.6 8.6 -2.9 10.6 -1.8 11.5 1.8 1.7 27.4 13.6 38.7 18.1 25.7 10.2 51.2 13.2 80.6 9.4z m77.5 -43.3 c0 -0.2 -0.9 -1.1 -1.9 -2.1 -1.9 -1.6 -2 -1.6 -1.8 0.2 0 1.1 0.9 2 1.9 2 1 0.1 1.8 0 1.8 -0.1z m-162 -73.6 c37.9 -2.6 56.5 -7.2 82.1 -20.1 6.4 -3.3 15.8 -8.9 21 -12.6 12.5 -8.9 30.8 -27.4 38.8 -39.2 l6.4 -9.4 -2.2 -1.8 c-4.1 -3.3 -25.6 -13.7 -35.6 -17.2 -35.7 -12.4 -74.4 -8.7 -114.5 10.9 -25.4 12.5 -35.5 17.6 -36.3 18.3 -0.4 0.4 0.7 4.1 2.4 8.2 1.8 4.1 3.9 9.7 4.8 12.6 l1.6 5.2 16.5 -4.3 c9.1 -2.4 20.5 -5.5 25.4 -7 11.1 -3.3 21 -3.6 22.6 -0.7 1.6 3.1 1.2 7.6 -1 10.4 -3.1 3.9 -23.4 10.9 -48.5 16.8 -5.5 1.2 -10.1 2.4 -10.3 2.5 -0.2 0.1 1.6 12.5 3.3 23.1 0.5 2.6 1.2 3.5 3.8 4.2 4.2 1.2 3.2 1.2 19.7 0.1z m-448.5 -2.2 c0.4 -0.4 1.7 -6.6 2.9 -13.8 l2.2 -13.1 -2.1 -0.4 c-36.9 -8.5 -53.1 -13.7 -56 -17.8 -1.9 -2.8 -1.9 -8.7 0.1 -11.5 2.1 -3 7.9 -2.9 17.1 0.2 5.6 1.9 32.1 8.8 43.1 11.2 1.3 0.2 2.4 -0.1 2.7 -0.8 0.2 -0.7 2.2 -6.2 4.4 -12.2 2.6 -6.9 3.7 -11.3 3.2 -12 -0.5 -0.6 -9.6 -5.3 -20.3 -10.5 -10.6 -5.2 -21.3 -10.4 -23.8 -11.7 -8.2 -4 -23.4 -9.2 -34 -11.6 -14.5 -3.2 -40.6 -3.2 -55.2 0 -11.5 2.5 -24 6.6 -28.6 9.3 -1.8 1 -3.8 1.9 -4.4 1.9 -0.7 0 -5.6 2.5 -11 5.6 l-9.8 5.5 2 3.7 c14.6 26.7 35.2 46.1 64.8 61.2 18.6 9.4 41 15.3 64.2 16.9 13.7 1 37.5 0.9 38.5 -0.1z m413.2 -95.8 c24.8 -13 36.9 -20.8 53 -34.3 28.3 -23.7 44.4 -51.1 52.3 -88.7 1.1 -5.2 2 -10.9 2 -12.7 0 -3.1 -0.1 -3.2 -5.6 -3.9 -14.9 -1.8 -40.4 1.4 -59.8 7.6 -12.9 4.2 -33.6 14.8 -44.1 22.7 -13 9.8 -31.2 28.4 -46.2 47.2 l-13 16.3 8.4 8.2 c4.7 4.4 8.9 8.2 9.3 8.4 0.4 0.2 5.4 -3.4 11.1 -8 12.6 -10 27.1 -20.3 32.2 -22.9 2.7 -1.4 5.4 -1.9 9 -1.7 l5.2 0.3 0.3 5.4 c0.2 4 -0.1 5.8 -1.5 7.4 -1 1.1 -10.9 9.6 -22 18.9 -11.2 9.3 -20.3 17.1 -20.3 17.3 0 0.9 13.2 20.5 13.7 20.5 0.4 0 7.5 -3.6 16 -8z m-375.2 -5.3 c3 -4.3 5.5 -8.2 5.5 -8.6 0 -0.8 -29.8 -26.3 -39.6 -33.9 -4.5 -3.5 -4.5 -3.6 -4.2 -9.1 0.3 -5.3 0.4 -5.6 3.7 -6.5 7.5 -2.1 17.8 3.5 42.6 23.5 l13.3 10.7 7.8 -7.9 c9.2 -9.3 9.7 -6.4 -4.4 -24.9 -32 -41.8 -54.4 -60.2 -88.1 -72.1 -21.7 -7.6 -48.3 -10.6 -65.2 -7.2 -3.4 0.7 -3.4 0.3 -0.2 16.8 3.1 16.5 12.1 39.5 20.5 53 16.6 26.4 43.7 48.9 84.8 70.6 l14.5 7.6 1.8 -2.1 c1 -1.2 4.2 -5.6 7.2 -9.9z m-115.9 -24 c0.4 -0.4 -3.7 -0.6 -9.2 -0.6 -5.4 0.1 -8.9 0.5 -7.6 0.8 3.2 0.8 15.9 0.7 16.8 -0.2z m181.7 -35.9 l11.2 -6.2 -8.5 -17 c-12.8 -25.8 -18.9 -46.3 -14.8 -50.4 1.9 -1.9 10.2 -1.5 12 0.6 0.9 0.9 7.7 14.3 15.2 29.6 7.5 15.4 13.7 28.1 13.9 28.2 0.3 0.3 22.7 -7.3 23.3 -7.8 0.3 -0.4 -7.1 -36.1 -9.5 -45.5 -9 -34.8 -29 -65.7 -57.5 -88.7 -13.8 -11.1 -27.7 -18.7 -42.2 -23.1 -4.9 -1.4 -4.1 -2.3 -8 9 -9.1 26 -9.7 55.2 -1.8 84.5 5 18.4 12.8 34.4 27.2 55.5 8.2 11.9 27.2 37.5 27.9 37.5 0.2 0 5.4 -2.8 11.6 -6.2z m235.9 -0.5 c23.3 -28.9 35.2 -47.7 43.7 -68.8 7.3 -18.3 12 -40.8 12.1 -57.7 0 -15.3 -3.4 -34.3 -8.6 -48 -2.2 -5.8 -3.5 -6 -13.2 -2.2 -16 6.4 -30.9 16.2 -44.9 29.7 -23.1 22.2 -37.8 44.8 -46.7 71.7 -4.3 13.2 -13.1 51.9 -12 53 1 0.9 20.4 7 22.2 7 0.6 0 7 -11.7 14.2 -26 7.2 -14.3 14.2 -27.3 15.6 -29 2.2 -2.6 3.3 -3 7.3 -3 2.6 0 5.2 0.5 5.9 1.2 4.5 4.5 -3.4 26.6 -22 61.7 -1.3 2.5 -1.9 4.5 -1.3 4.7 0.6 0.3 5.5 3.1 11 6.3 5.5 3.2 10.3 5.9 10.6 6 0.4 0.1 3.1 -2.9 6.1 -6.6z m-90.9 -28.5 c2 -8.2 10.8 -54.8 11.7 -61.8 2.3 -19 0.3 -41.4 -5.5 -61.5 -7.8 -27 -21.8 -52.2 -34.9 -62.9 l-4.6 -3.9 -4.1 2.9 c-8.8 6.1 -22.6 25.1 -30.6 42.1 -13.4 28.8 -18.7 59.3 -14.9 86.8 1.3 9.4 6.6 38.8 10.2 57.4 0.5 2.2 0.8 2.3 5.2 1.7 2.6 -0.4 8.6 -0.9 13.5 -1.3 l8.7 -0.6 0 -20.1 c0.1 -25.3 1.4 -45.5 3.1 -49.2 1.3 -2.6 2 -2.9 6.5 -3.2 8.2 -0.5 7.9 -1.9 8.2 37.4 l0.3 34.4 2.2 0.5 c2.3 0.6 19.9 3.2 22.8 3.4 1 0 1.9 -0.9 2.2 -2.1z m159.7 -56 c0 -3.2 -1.5 -1.9 -1.6 1.3 -0.1 2 0.2 2.6 0.7 1.7 0.5 -0.7 0.9 -2.1 0.9 -3z m106 -7 c0 -0.4 -2.8 -0.7 -6.2 -0.7 -5.5 0.2 -5.8 0.3 -2.3 0.8 5.6 0.9 8.5 0.8 8.5 -0.1z m-249.4 -89.3 c-0.3 -0.9 -1 -1.3 -1.6 -1 -0.6 0.4 -0.5 1.1 0.3 2 1.5 1.6 2.2 1.1 1.3 -1z"/>
 </g>
 <g fill="#594130">
  <path d="M312.8 784.3 c-0.6 -2.8 0.2 -5.3 1.8 -5.3 0.9 0 1.4 1.1 1.4 3.5 0 3.7 -2.4 5 -3.2 1.8z"/>
  <path d="M190 726.8 c0 -3 1.3 -5.8 2.6 -5.8 0.9 0 1.4 1.2 1.4 3.5 0 2.8 -0.4 3.5 -2 3.5 -1.1 0 -2 -0.6 -2 -1.2z"/>
  <path d="M491.5 691.3 c-7.3 -0.6 -30.9 -5.4 -39.5 -8 -17.6 -5.2 -38.9 -15.5 -55.5 -26.7 -11.7 -7.9 -32.8 -29 -42.2 -42.1 -6.9 -9.8 -17.5 -29 -21.5 -39 -2.6 -6.5 -9.2 -28.2 -11.1 -36.5 -2.7 -11.7 -4 -28.8 -3.5 -46 0.5 -13.9 0.9 -17.8 3.1 -25.1 1.4 -4.7 3.7 -13.7 5.1 -19.8 1.4 -6.2 3.3 -13.3 4.1 -15.7 3.4 -10.2 15.8 -31.8 17.8 -31.1 0.6 0.2 2.7 -2.8 4.6 -6.7 5.3 -10.3 29.1 -34.4 43.2 -43.7 2 -1.3 7 -4.6 11 -7.3 9.7 -6.4 33.3 -17.8 43.6 -21 17.1 -5.3 26.5 -6.7 49 -7.3 30.8 -0.8 43.8 0.8 71.3 9 15.6 4.7 23.4 7.7 33.7 13.3 23.4 12.4 47 32.7 59.1 50.7 2.6 4 6.4 9.5 8.3 12.2 6.8 9.7 11 17.4 16 29.6 9 21.9 12.3 34.8 14.9 58.5 3.2 29.5 -7.3 75.3 -24.2 105.4 -3.9 6.9 -9.2 15.4 -11.8 19 -6.8 9.1 -33.7 35.2 -45 43.6 -25.7 19.1 -58.1 31.8 -87.5 34.4 -10.3 0.9 -34.1 1.1 -43 0.3z"/>
  <path d="M304.5 659 c0.3 -0.5 1.9 -1.9 3.5 -3 l3 -2.1 0 3 c0 2.9 -0.3 3.1 -3.6 3.1 -2 0 -3.3 -0.4 -2.9 -1z"/>
  <path d="M203.3 475.5 c-11.2 -4.8 -12.9 -6.5 -6.8 -6.5 2.4 0 3.5 0.5 3.5 1.5 0 1 1.1 1.5 3.5 1.5 3.1 0 3.5 0.3 3.5 2.5 0 1.4 -0.1 2.5 -0.2 2.5 -0.2 -0.1 -1.8 -0.7 -3.5 -1.5z"/>
  <path d="M599 200.1 c0 -0.6 1.1 -2.3 2.5 -3.8 l2.4 -2.8 0.1 3.8 c0 3.3 -0.3 3.7 -2.5 3.7 -1.4 0 -2.5 -0.4 -2.5 -0.9z"/>
  <path d="M633.5 163 c0.3 -0.5 1.9 -1.9 3.5 -3 l3 -2.1 0 3 c0 2.9 -0.3 3.1 -3.6 3.1 -2 0 -3.3 -0.4 -2.9 -1z"/>
 </g>
 <g fill="#f5b83e">
  <path d="M501 892.4 c-16.7 -16 -33.8 -46.9 -42.1 -75.5 -8.8 -30.8 -7.7 -56.9 4.1 -97.4 2.3 -7.7 4.3 -14.1 4.5 -14.3 0.2 -0.2 5.2 0.3 11.2 1.2 5.9 0.8 14.1 1.8 18.2 2.2 l7.3 0.6 -0.6 12.2 c-0.4 6.6 -0.2 22 0.2 34 0.9 21 1 22.1 3.2 23.8 2.7 2.2 5.6 1 7.1 -3 0.6 -1.4 1.3 -16.8 1.6 -34.2 0.3 -18.3 1 -32 1.6 -32.7 0.5 -0.8 3.3 -1.3 6.6 -1.3 3.1 0 10.3 -0.7 16.1 -1.5 5.8 -0.8 11 -1.5 11.6 -1.5 1.5 0 3.7 6.1 7.8 22 5.8 22.7 7.1 31.5 7 51 0 14.2 -0.4 19.4 -2.2 27.3 -5 22.8 -15.2 46.6 -28 65.8 -10.4 15.5 -22.5 27.9 -27.2 27.9 -0.6 0 -4.3 -3 -8 -6.6z"/>
  <path d="M320.1 847.8 c-1.1 -3.4 -2.9 -10.6 -4 -15.8 -9 -44.1 -2.2 -84.1 20.1 -118.6 9.8 -15.2 38.2 -48.4 41.4 -48.4 0.7 0 4.7 2.1 8.8 4.8 4 2.6 10.1 6.4 13.5 8.4 l6 3.7 -4.3 9.8 c-8 17.9 -12.3 26.7 -18.5 37.8 -6.8 12.2 -7.4 15.3 -2.9 16.9 3.5 1.2 5.5 -0.5 11.5 -9.7 4.6 -7.2 19.3 -34.5 19.3 -35.9 0 -0.5 1.3 -3.5 3 -6.8 l3 -5.9 5.2 1.8 c14.5 5.1 28.8 11.4 29.3 13 1 3.3 -12.6 48.7 -18.5 61.7 -8.8 19.4 -30.6 45.3 -51 60.5 -20.1 14.9 -41.3 25.6 -56.5 28.5 l-3.3 0.6 -2.1 -6.4z"/>
  <path d="M684.4 852 c-15 -3.9 -28.2 -10.8 -45.4 -23.5 -22.6 -16.9 -39.1 -35.8 -49.8 -57.2 -6.1 -12 -23.3 -67.6 -21.6 -69.3 0.5 -0.5 8.2 -3.6 17.1 -6.9 15.2 -5.7 19.3 -6.5 19.3 -3.7 0 1.8 14.6 31.2 20.6 41.3 6.4 10.8 10.9 16.3 13.4 16.3 3.3 0 5 -1.2 5 -3.5 0 -1.2 -4.4 -11 -9.8 -21.6 -5.3 -10.7 -11.8 -24.3 -14.4 -30.2 -5.4 -12.5 -6.1 -10.8 6.7 -18.7 4.4 -2.7 10 -6.1 12.4 -7.7 l4.4 -2.7 10.4 10.8 c11.6 12.1 26.7 31.6 33.2 43 16.6 29 22.9 61.5 18.7 95.8 -2.6 20.5 -8.1 39.9 -11.4 39.7 -0.9 0 -4.9 -0.9 -8.8 -1.9z"/>
  <path d="M199.1 738.4 c-5.2 -0.7 -9.6 -1.6 -9.9 -1.9 -1.1 -1 3.1 -21.2 6.4 -31.5 12.9 -39.3 43.1 -74.4 79.9 -92.7 3.3 -1.7 11.2 -5.6 17.5 -8.8 15.5 -7.8 26.8 -12.5 28.3 -11.9 0.6 0.2 3.2 4.3 5.7 9 2.5 4.7 6 10.9 7.8 13.6 1.7 2.7 3.2 5.4 3.2 5.9 0 0.4 -1.5 1.6 -3.2 2.5 -9.6 4.9 -34.7 24.5 -45.2 35.2 -4.9 5 -4.9 5.1 -3.2 7.6 3 4.7 3.2 4.6 26.2 -12.5 17.8 -13.3 28.6 -20.5 31.6 -21.1 1 -0.2 5.2 3.7 11.7 10.9 l10.2 11.3 -12.3 14.2 c-26.5 30.7 -42.6 44.7 -64.4 55.6 -26.7 13.4 -60.9 18.9 -90.3 14.6z"/>
  <path d="M780.5 738.9 c-27.6 -2.8 -50.9 -11.4 -70 -25.6 -11 -8.2 -27.8 -24.9 -44.8 -44.6 l-12.8 -14.7 10.2 -11.3 c5.6 -6.1 10.4 -11.4 10.6 -11.6 0.5 -0.7 16.5 10.2 32.5 22.1 8 5.9 16 11.3 17.6 11.9 3.7 1.3 7.2 -0.2 7.2 -3 0 -3.6 -20.2 -21.3 -38.7 -33.8 -5.4 -3.6 -10 -6.7 -10.2 -6.9 -0.1 -0.1 2.4 -4.7 5.7 -10.1 3.2 -5.4 7.1 -12.2 8.6 -15 1.4 -2.9 3 -5.3 3.4 -5.3 0.4 0 2.7 1.1 5.1 2.5 2.3 1.4 4.8 2.5 5.3 2.5 1.8 0 33.9 16.4 44.7 22.9 22.9 13.6 39.1 29.3 52.4 50.8 9.9 16.1 15 27.8 19.3 44.7 2.7 10.8 4.2 22.6 2.8 22.6 -0.5 0 -5.4 0.7 -10.9 1.5 -10.8 1.6 -25.2 1.7 -38 0.4z"/>
  <path d="M193.5 606.9 c-16.8 -1.6 -35 -6.9 -51.8 -14.9 -8.7 -4.1 -20.4 -12.1 -21.4 -14.6 -0.7 -1.8 6.2 -13.4 13.6 -22.6 22.9 -28.8 57.9 -47.4 97.6 -51.9 10.1 -1.2 62.1 -0.6 67.8 0.7 2.6 0.6 2.7 0.8 2.7 7.8 0 3.9 0.5 10.9 1 15.5 0.5 4.7 0.8 8.6 0.7 8.7 -0.1 0.2 -5.2 1 -11.2 1.9 -5.9 0.9 -16.9 3.2 -24.3 5 -19.2 4.9 -26.3 8.9 -23.6 13.2 1.8 2.9 6.3 2.6 20.5 -1.1 15.9 -4.1 24.8 -5.6 34.8 -5.9 l7.3 -0.2 3.3 11.5 c1.7 6.3 3.5 12.7 3.8 14.1 0.6 2.4 0 2.9 -16.1 10.7 -40.7 19.9 -68.2 25.7 -104.7 22.1z"/>
  <path d="M789.5 607 c-19 -1.7 -38.1 -7.7 -66 -20.8 -16.5 -7.8 -18.5 -9 -18 -10.5 0.2 -0.7 2.2 -7.1 4.5 -14.4 l4.1 -13.2 3.2 0.4 c15.8 2 22.6 3.2 38.2 6.6 9.9 2.2 19 3.7 20.3 3.4 3 -0.7 3.8 -3 1.9 -5.9 -2.8 -4.2 -33.7 -13 -53.6 -15.1 l-6.3 -0.7 0.6 -10.7 c1 -16 1.4 -17.7 4.4 -19.7 2.4 -1.5 6.1 -1.8 29.7 -2.2 44.8 -0.7 61.9 2.2 88 15.1 22.2 11 46.3 32.7 56.3 50.7 5.2 9.4 5.2 9.1 -3 14.6 -14.5 9.6 -39.8 18.6 -60.3 21.4 -10.8 1.4 -32.9 2 -44 1z"/>
  <path d="M723.3 488.9 c-2.6 -0.7 -3.3 -1.6 -3.8 -4.2 -0.3 -1.7 -1.2 -7.6 -2 -13.1 -0.9 -5.4 -1.8 -10.2 -2.1 -10.7 -0.2 -0.4 -0.2 -1.9 0.1 -3.1 0.5 -2 1.8 -2.6 8.8 -4.2 11.5 -2.5 33.2 -8.9 41.6 -12.1 8 -3 11.7 -6.5 10 -9.6 -1.4 -2.6 -5.8 -2.4 -16 0.6 -12 3.6 -41.9 11.3 -45.3 11.7 -2.8 0.3 -3.1 0 -4.6 -5.2 -0.9 -3 -3.6 -9.9 -6 -15.3 -2.4 -5.7 -3.9 -10.2 -3.4 -10.7 0.5 -0.5 6.8 -3.7 13.9 -7.3 51.9 -25.8 66.2 -30.1 99 -30.1 18.8 0 31.1 1.9 45.9 7.1 15.8 5.5 39.6 18 39.6 20.8 0 3.7 -14.9 23.6 -25.9 34.6 -13.7 13.6 -26.1 22.7 -42 30.8 -25.6 12.9 -44.2 17.5 -82.1 20.1 -17.1 1.2 -21.4 1.1 -25.7 -0.1z"/>
  <path d="M256 486.9 c-48.8 -3.3 -91.9 -25.8 -118.7 -61.9 -7.8 -10.4 -13.6 -21.4 -12.8 -24 0.6 -1.9 18.8 -13 21.3 -13 0.6 0 2.6 -0.9 4.4 -1.9 4.6 -2.7 17.1 -6.8 28.6 -9.3 8.1 -1.8 13.1 -2.2 30.2 -2.2 18 -0.1 21.8 0.2 31 2.2 10.6 2.4 25.8 7.6 34 11.6 2.5 1.3 13.1 6.5 23.7 11.6 10.5 5.2 20.2 10.1 21.4 11.1 l2.2 1.6 -4 9.9 c-2.3 5.4 -4.8 12.3 -5.8 15.2 -0.9 2.8 -1.9 5.2 -2.1 5.2 -3.5 0 -42.6 -9.8 -51.8 -13 -7.5 -2.6 -8.2 -2.5 -10.2 0.5 -1.5 2.3 -1.5 2.7 -0.1 4.9 2.6 3.9 22.1 10.4 50 16.7 9.1 2 9.8 2.3 9.3 4.3 -0.5 1.8 -3.7 19.1 -5.1 28.2 l-0.5 3.1 -16.3 0 c-8.9 0 -21.8 -0.3 -28.7 -0.8z"/>
  <path d="M684 388.3 c-4.7 -7.1 -8.5 -13.1 -8.5 -13.5 0 -0.4 8.8 -8 19.5 -16.8 10.7 -8.9 21.2 -17.8 23.3 -19.8 5.6 -5.5 4.7 -10.4 -1.8 -8.8 -3.6 0.9 -19.9 12.2 -35.8 24.8 l-13.8 11 -11.2 -10.8 c-6.2 -5.9 -11.3 -11.1 -11.5 -11.5 -0.7 -1.5 29 -37.3 40.2 -48.4 15.7 -15.6 27 -24 43.1 -32.1 23.5 -11.7 42.5 -16.4 69 -17.1 9.4 -0.2 18.8 0 21 0.4 l4 0.9 -0.3 6 c-0.4 8.2 -3.7 23.5 -7.7 36.2 -11.3 35.6 -36.9 65.4 -76.9 89.6 -9.2 5.6 -41.8 22.6 -43.2 22.6 -0.6 0 -4.8 -5.7 -9.4 -12.7z"/>
  <path d="M312.9 392.1 c-37.8 -19.7 -62.2 -38 -78.6 -58.9 -8.9 -11.3 -12.2 -16.5 -18.1 -29.2 -8.1 -17.3 -13.5 -36.3 -14.9 -52.4 l-0.6 -7.3 2.9 -0.6 c1.6 -0.4 7.9 -1 13.9 -1.3 22.5 -1.4 50.7 4.2 71.5 14.1 30.2 14.4 50.4 33.6 84.9 80.8 l4.3 5.8 -10.3 10.5 c-5.7 5.7 -10.7 10.4 -11.1 10.4 -0.5 0 -3.9 -2.6 -7.6 -5.8 -15.6 -13.3 -36 -28 -41.7 -29.9 -4 -1.4 -7.5 0 -7.5 2.9 0 1.7 3.8 5.4 15.3 15 25.2 21 31.2 26 31.5 26.9 0.2 0.5 -1.6 3.5 -4.1 6.6 -2.4 3.2 -6.5 9.1 -9.1 13.1 -2.6 3.9 -5.1 7.1 -5.4 7.1 -0.4 -0.1 -7.3 -3.6 -15.3 -7.8z"/>
  <path d="M377.4 320.3 c-28.6 -38.2 -39.3 -57.2 -45.8 -81.3 -8.1 -30 -7.4 -64.1 1.8 -90.5 3.7 -10.6 3.6 -10.5 6.5 -10.5 3.8 0 14 3.4 23.6 7.9 28.3 13.3 55.5 41 71.3 72.6 8.5 17 11.9 28.3 18.7 61.5 2 9.6 3.8 18.6 4.1 20 0.5 2.4 0.1 2.7 -6.8 4.9 -4 1.3 -10.7 3.7 -14.8 5.3 -4.1 1.6 -7.6 2.6 -7.8 2.1 -5.2 -11.8 -30.2 -60 -31.4 -60.7 -2.3 -1.4 -5.2 0.3 -5.6 3.1 -0.8 5.2 13.2 39.2 23 56 2.9 4.9 3.4 6.4 2.5 7.6 -0.7 0.8 -5.9 4 -11.7 7.2 -5.8 3.2 -11.6 6.6 -12.9 7.6 -1.3 1.1 -2.7 1.9 -3 1.9 -0.3 0 -5.6 -6.6 -11.7 -14.7z"/>
  <path d="M628 332.1 c-1.4 -1 -7.6 -4.7 -13.7 -8.1 -6.2 -3.4 -11.3 -6.4 -11.3 -6.7 0 -0.2 1.7 -3.5 3.9 -7.1 12.6 -21.9 25.5 -52.7 23.4 -56 -1.7 -2.9 -4.8 -2.6 -7.6 0.8 -1.4 1.7 -8.5 14.6 -15.6 28.8 -7.2 14.1 -13.5 26.3 -14 27.1 -0.7 1.1 -3.6 0.5 -15.8 -3.4 l-14.9 -4.8 5.3 -24.1 c6.4 -28.5 10.5 -41.2 17.8 -55.9 9.8 -19.5 19.9 -33 37.2 -49.8 18.6 -18 38.9 -29.7 59.9 -34.6 1.7 -0.4 2.4 0.5 4.7 6.4 10.3 26.8 11.5 60.9 3.2 92.2 -5.1 19.1 -13.2 36.4 -26.5 56.6 -10.9 16.5 -30.1 40.5 -32.3 40.5 -0.7 0 -2.3 -0.9 -3.7 -1.9z"/>
  <path d="M543.9 299.6 c-0.2 -0.3 -5.8 -1.2 -12.4 -2.1 -6.6 -0.9 -12.8 -1.8 -13.7 -2.1 -1.7 -0.5 -1.8 -3 -1.9 -33.2 -0.1 -18 -0.4 -33.8 -0.8 -35.1 -0.9 -3.3 -3.6 -4.9 -5.8 -3.5 -3.4 2.1 -4.3 9.9 -5 41.7 l-0.6 30.7 -4.6 0 c-2.5 0 -9.5 0.7 -15.6 1.5 -6 0.8 -11.3 1.5 -11.7 1.5 -0.4 0 -1 -1.7 -1.3 -3.7 -0.4 -2.1 -2.4 -13 -4.5 -24.3 -6.2 -32.7 -7.3 -42.4 -6.7 -59.5 0.6 -17 3 -30.6 8.2 -46.1 8.9 -26.8 25.5 -53 39.9 -62.9 l5.6 -3.8 5.7 4.4 c23.9 18.6 43.3 68.1 43.3 110.4 0 17 -1 24.5 -7.5 57.6 -3 15.2 -5.5 27.9 -5.5 28.3 0 0.7 -4.4 0.8 -5.1 0.2z"/>
 </g>
</svg>